<svg xmlns="http://www.w3.org/2000/svg" width="146.136" height="151.392" viewBox="0 0 146.136 151.392">
  <g id="email" transform="translate(-42.22 -39.08)">
    <g id="freepik--background-complete--inject-152" transform="translate(42.22 39.08)">
      <path id="Path_1386" data-name="Path 1386" d="M60.567,67.246l4.585-.1,2.327-.038h2.5v.157L70,71.178v.175h-.175L65.2,71.311c-1.545,0-3.086-.038-4.627-.059h-.1v-.094c0-.664.031-1.321.045-1.974Zm0,0,.049,1.978c0,.65.038,1.293.045,1.933l-.094-.094c1.541,0,3.082-.056,4.627-.056l4.627-.024-.175.175.017-3.911.157.157c-.765,0-1.524,0-2.289-.021l-2.3-.038Z" transform="translate(-54.099 -57.314)" fill="#ebebeb"/>
      <path id="Path_1387" data-name="Path 1387" d="M75.318,53.136l4.585-.1L82.23,53h2.5v.157l.021,3.911v.175h-.168l-4.634-.049c-1.545,0-3.086-.038-4.627-.059h-.1V57.04c0-.664.031-1.321.045-1.974Zm0,0,.049,1.978c0,.65.038,1.293.045,1.933l-.094-.094c1.541,0,3.082-.056,4.627-.056l4.634-.024-.175.175V53.136l.157.157c-.762,0-1.524,0-2.289-.021l-2.3-.038Z" transform="translate(-63.688 -48.135)" fill="#ebebeb"/>
      <path id="Path_1388" data-name="Path 1388" d="M101,196.867l4.585-.1,2.327-.038c.779-.017,1.562,0,2.341-.021h.154v.157l.021,3.911v.175h-.175l-4.627-.024c-1.545,0-3.086-.038-4.627-.056h-.1v-.094c0-.664.031-1.324.045-1.978Zm0,0,.049,1.974c0,.65.038,1.3.045,1.936l-.094-.1c1.541,0,3.082-.056,4.627-.056l4.627-.021-.175.175v-3.911l.157.154h-2.289l-2.3-.038Z" transform="translate(-80.393 -141.624)" fill="#ebebeb"/>
      <path id="Path_1389" data-name="Path 1389" d="M115.818,182.757l4.585-.1,2.327-.038c.779,0,1.562,0,2.341-.021h.154v.157l.021,3.911v.175h-.175l-4.627-.024c-1.545,0-3.086-.038-4.627-.056h-.1v-.094c0-.664.031-1.324.049-1.978Zm0,0,.049,1.974c0,.65.038,1.3.045,1.936l-.094-.084c1.541-.017,3.082-.052,4.627-.056l4.627-.021-.175.175v-3.911l.157.154c-.762,0-1.524,0-2.289-.017l-2.3-.038Z" transform="translate(-90.034 -132.445)" fill="#ebebeb"/>
      <path id="Path_1390" data-name="Path 1390" d="M45.792,53.136l4.588-.1L52.69,53h2.5v.157l.017,3.911v.175h-.178L50.4,57.194c-1.541,0-3.082-.038-4.627-.059H45.68V57.04c0-.664.031-1.321.045-1.974Zm0,0,.052,1.978c0,.65.038,1.293.045,1.933l-.1-.094c1.545,0,3.086-.056,4.627-.056l4.627-.024-.175.175.007-3.911.154.157c-.762,0-1.52,0-2.286-.021l-2.3-.038Z" transform="translate(-44.471 -48.135)" fill="#ebebeb"/>
      <path id="Path_1391" data-name="Path 1391" d="M421.719,288.805l-4.585.1-2.327.042c-.779,0-1.559,0-2.341.017h-.154v-.157l-.021-3.907v-.178h.175l4.627.021c1.545,0,3.086.038,4.627.056h.1v.094c0,.66-.031,1.321-.045,1.974Zm0,0-.049-1.974c0-.65-.038-1.293-.045-1.933l.094.094c-1.541.017-3.082.056-4.627.056l-4.627.021.175-.171-.017,3.907-.157-.154h2.289l2.3.042Z" transform="translate(-282.963 -198.877)" fill="#ebebeb"/>
      <path id="Path_1392" data-name="Path 1392" d="M436.5,302.915l-4.588.1-2.327.042c-.779,0-1.559,0-2.338.017h-.157v-.157L427.07,299v-.175h.178l4.627.021c1.541,0,3.082.038,4.627.056h.094V299c0,.664-.031,1.324-.045,1.978Zm0,0-.052-1.974c0-.65-.038-1.293-.045-1.936l.1.1c-1.545.017-3.086.056-4.627.056l-4.627.021.175-.175-.024,3.911-.154-.154c.762,0,1.52,0,2.286.017l2.3.042Z" transform="translate(-292.578 -208.056)" fill="#ebebeb"/>
      <path id="Path_1393" data-name="Path 1393" d="M69.879,302.915l-4.585.1-2.327.042c-.779,0-1.562,0-2.341.017h-.154v-.157L60.45,299v-.175h.192l4.627.021c1.545,0,3.086.038,4.627.056h.1V299c0,.664-.031,1.324-.049,1.978Zm0,0-.049-1.974c0-.65-.038-1.293-.045-1.936l.094.1c-1.541.017-3.082.056-4.627.056l-4.609.021.175-.175-.017,3.911-.157-.154c.762,0,1.524,0,2.289.017l2.3.042Z" transform="translate(-54.079 -208.056)" fill="#ebebeb"/>
      <path id="Path_1394" data-name="Path 1394" d="M412.5,53.136l4.588-.1L419.42,53h2.5v.157l.017,3.911v.175h-.175l-4.627-.049c-1.541,0-3.086-.038-4.627-.059h-.094V57.04c0-.664.028-1.321.045-1.974Zm0,0,.049,1.978c.017.65.042,1.293.045,1.933l-.094-.094c1.541,0,3.086-.056,4.627-.056l4.627-.024-.175.175.021-3.911.154.157c-.762,0-1.524,0-2.286-.021l-2.313-.038Z" transform="translate(-283.041 -48.135)" fill="#ebebeb"/>
      <path id="Path_1395" data-name="Path 1395" d="M364.058,104.826H317.53V39.85h46.528Zm-45.147-1.38h43.767V41.23H318.91Z" transform="translate(-221.319 -39.581)" fill="#ebebeb"/>
      <rect id="Rectangle_1578" data-name="Rectangle 1578" width="1.38" height="62.544" transform="translate(118.783 2.009)" fill="#ebebeb"/>
      <rect id="Rectangle_1579" data-name="Rectangle 1579" width="49.034" height="1.922" transform="translate(94.96 3.061)" fill="#ebebeb"/>
      <rect id="Rectangle_1580" data-name="Rectangle 1580" width="49.034" height="1.922" transform="translate(94.96 5.225)" fill="#ebebeb"/>
      <rect id="Rectangle_1581" data-name="Rectangle 1581" width="49.034" height="1.922" transform="translate(94.96 7.384)" fill="#ebebeb"/>
      <rect id="Rectangle_1582" data-name="Rectangle 1582" width="49.034" height="1.922" transform="translate(94.96 9.547)" fill="#ebebeb"/>
      <rect id="Rectangle_1583" data-name="Rectangle 1583" width="49.034" height="1.922" transform="translate(94.96 11.711)" fill="#ebebeb"/>
      <rect id="Rectangle_1584" data-name="Rectangle 1584" width="49.034" height="1.922" transform="translate(94.96 13.874)" fill="#ebebeb"/>
      <rect id="Rectangle_1585" data-name="Rectangle 1585" width="49.034" height="1.922" transform="translate(94.96 16.037)" fill="#ebebeb"/>
      <rect id="Rectangle_1586" data-name="Rectangle 1586" width="49.034" height="1.922" transform="translate(94.96 18.2)" fill="#ebebeb"/>
      <rect id="Rectangle_1587" data-name="Rectangle 1587" width="49.034" height="1.922" transform="translate(94.96 20.363)" fill="#ebebeb"/>
      <rect id="Rectangle_1588" data-name="Rectangle 1588" width="0.346" height="37.41" transform="translate(139.545 2.67)" fill="#a6a6a6"/>
      <path id="Path_1396" data-name="Path 1396" d="M441.5,155.091H440.27l.307-1.761h.612Z" transform="translate(-301.165 -113.404)" fill="#a6a6a6"/>
      <rect id="Rectangle_1589" data-name="Rectangle 1589" width="0.346" height="46.846" transform="translate(140.789 2.67)" fill="#a6a6a6"/>
      <path id="Path_1397" data-name="Path 1397" d="M445.057,181.2H443.83l.308-1.761h.612Z" transform="translate(-303.481 -130.389)" fill="#a6a6a6"/>
      <rect id="Rectangle_1590" data-name="Rectangle 1590" width="53.318" height="4.022" transform="translate(92.818)" fill="#dbdbdb"/>
      <rect id="Rectangle_1591" data-name="Rectangle 1591" width="39.077" height="2.32" transform="translate(0 23.065)" fill="#ebebeb"/>
      <rect id="Rectangle_1592" data-name="Rectangle 1592" width="2.32" height="7.674" transform="translate(2.967 25.385)" fill="#ebebeb"/>
      <rect id="Rectangle_1593" data-name="Rectangle 1593" width="2.32" height="2.373" transform="translate(2.967 25.385)" fill="#dbdbdb"/>
      <rect id="Rectangle_1594" data-name="Rectangle 1594" width="2.32" height="7.674" transform="translate(33.79 25.385)" fill="#ebebeb"/>
      <rect id="Rectangle_1595" data-name="Rectangle 1595" width="2.32" height="2.373" transform="translate(33.79 25.385)" fill="#dbdbdb"/>
      <rect id="Rectangle_1596" data-name="Rectangle 1596" width="14.789" height="3.725" transform="translate(8.81 8.275) rotate(90)" fill="#c7c7c7"/>
      <rect id="Rectangle_1597" data-name="Rectangle 1597" width="1.625" height="3.725" transform="translate(8.81 7.489) rotate(90)" fill="#dbdbdb"/>
      <rect id="Rectangle_1598" data-name="Rectangle 1598" width="0.605" height="3.725" transform="translate(8.81 11.193) rotate(90)" fill="#dbdbdb"/>
      <rect id="Rectangle_1599" data-name="Rectangle 1599" width="1.625" height="4.187" transform="translate(9.275 19.5) rotate(90)" fill="#dbdbdb"/>
      <rect id="Rectangle_1600" data-name="Rectangle 1600" width="17.25" height="2.604" transform="translate(11.41 5.815) rotate(90)" fill="#dbdbdb"/>
      <rect id="Rectangle_1601" data-name="Rectangle 1601" width="6.636" height="1.562" transform="translate(10.879 7.437) rotate(90)" fill="#ebebeb"/>
      <rect id="Rectangle_1602" data-name="Rectangle 1602" width="17.25" height="2.604" transform="matrix(0.711, 0.703, -0.703, 0.711, 17.655, 9.092)" fill="#c7c7c7"/>
      <rect id="Rectangle_1603" data-name="Rectangle 1603" width="6.636" height="1.562" transform="matrix(0.711, 0.703, -0.703, 0.711, 21.969, 14.071)" fill="#dbdbdb"/>
      <rect id="Rectangle_1604" data-name="Rectangle 1604" width="13.101" height="4.421" transform="translate(15.831 9.967) rotate(90)" fill="#a6a6a6"/>
      <rect id="Rectangle_1605" data-name="Rectangle 1605" width="1.22" height="4.421" transform="translate(15.831 20.458) rotate(90)" fill="#c7c7c7"/>
      <rect id="Rectangle_1606" data-name="Rectangle 1606" width="0.475" height="4.421" transform="translate(15.831 19.182) rotate(90)" fill="#c7c7c7"/>
      <rect id="Rectangle_1607" data-name="Rectangle 1607" width="12.315" height="3.054" transform="translate(5.085 10.757) rotate(90)" fill="#a6a6a6"/>
      <rect id="Rectangle_1608" data-name="Rectangle 1608" width="1.146" height="3.054" transform="translate(5.085 20.615) rotate(90)" fill="#c7c7c7"/>
      <rect id="Rectangle_1609" data-name="Rectangle 1609" width="1.146" height="3.054" transform="translate(5.085 13.29) rotate(90)" fill="#c7c7c7"/>
      <rect id="Rectangle_1610" data-name="Rectangle 1610" width="0.444" height="3.054" transform="translate(5.085 15.226) rotate(90)" fill="#c7c7c7"/>
    </g>
    <g id="freepik--Shadow--inject-152" transform="translate(44.478 172.51)">
      <path id="Path_1398" data-name="Path 1398" d="M189.389,429.871c0,4.959-31.5,8.981-70.354,8.981S48.68,434.83,48.68,429.871s31.5-8.981,70.354-8.981S189.389,424.912,189.389,429.871Z" transform="translate(-48.68 -420.89)" fill="#ebebeb"/>
    </g>
    <g id="freepik--Plant--inject-152" transform="translate(153.371 110.343)">
      <path id="Path_1399" data-name="Path 1399" d="M374.21,303.527s-5.8-1.314-8.974-4.243-4.955-8.174-4.955-8.174a49.844,49.844,0,0,1,6.5,1.709,10.963,10.963,0,0,1,1.968,2.8,13.222,13.222,0,0,0,0-1.988,8.8,8.8,0,0,1,2.065,1.251C373.462,297.17,374.21,303.527,374.21,303.527Z" transform="translate(-360.28 -274.297)" fill="#8fba4e"/>
      <path id="Path_1400" data-name="Path 1400" d="M366.172,295.218c-.79-.545-1.594-1.073-2.38-1.625-.049-.031,0-.108.045-.077,1.5.891,2.967,1.845,4.393,2.845q.744.524,1.468,1.08l-.1-.171c-.175-.29-.349-.577-.542-.863a12.194,12.194,0,0,0-1.23-1.643c-.017-.017,0-.045.028-.028.451.521.9,1.048,1.314,1.59.2.262.377.535.552.811.091.147.178.29.259.44l.087.147c.751.591,1.482,1.206,2.177,1.852q.647.6,1.248,1.244c-.227-.7-.423-1.4-.681-2.1,0-.024.031-.035.038,0,.252.723.528,1.454.723,2.2.444.479.87.975,1.269,1.5l-.021-.094c-.066-.276-.133-.549-.206-.818-.14-.524-.3-1.048-.472-1.562A9.086,9.086,0,0,0,372.581,297c-.017-.021,0-.049.028-.028a11.34,11.34,0,0,1,2.223,4.637c.063.245.119.493.175.741.031.133.066.266.087.4.175.238.349.475.514.72a25.367,25.367,0,0,1,2.446,4.812,55.888,55.888,0,0,1,1.873,5.78.031.031,0,0,1-.059,0,43.574,43.574,0,0,0-4.236-9.865,22.35,22.35,0,0,0-1.324-1.856,10.942,10.942,0,0,1-2.82-.559,12.689,12.689,0,0,1-2.824-1.366,17.5,17.5,0,0,1-1.45-1.094.021.021,0,1,1,.024-.031,11.593,11.593,0,0,0,2.659,1.611,14.39,14.39,0,0,0,2.925.978c.426.094.863.164,1.3.224a24.373,24.373,0,0,0-1.709-1.894c-.2-.2-.4-.384-.6-.573a13.685,13.685,0,0,0-2.142-1.227c-.951-.461-1.887-.947-2.827-1.426-.531-.269-1.048-.545-1.59-.807-.024,0,0-.042.021-.031.951.461,1.919.891,2.88,1.331s1.824.832,2.691,1.317l.112.066c-.786-.7-1.6-1.335-2.446-1.964C367.745,296.336,366.965,295.777,366.172,295.218Z" transform="translate(-362.552 -275.858)" fill="#263238"/>
      <path id="Path_1401" data-name="Path 1401" d="M371.543,306.982c.472.206.951.388,1.419.608s.933.486,1.4.755a.018.018,0,1,1-.017.031c-.461-.22-.93-.426-1.4-.657s-.933-.489-1.415-.7C371.508,306.982,371.519,306.957,371.543,306.982Z" transform="translate(-367.591 -284.616)" fill="#263238"/>
      <path id="Path_1402" data-name="Path 1402" d="M426,243a8.289,8.289,0,0,0-1.747,4.816c-.017.521.063,1.248.126,2.1a13.779,13.779,0,0,0-3.785,3.236,6.842,6.842,0,0,1,3.823-.916,11.823,11.823,0,0,1-.22,1.747,6.5,6.5,0,0,0-2.446.486,5.5,5.5,0,0,1,2.216.44c-1.048,3.288-4.1,6.668-12.581,8.1a17.823,17.823,0,0,1,1.5-11.938C415.437,246.061,426,243,426,243Z" transform="translate(-393.25 -243)" fill="#8fba4e"/>
      <path id="Path_1403" data-name="Path 1403" d="M403.221,281.278q.22-2.1.549-4.194a83.879,83.879,0,0,1,1.709-8.3A33.433,33.433,0,0,1,406.705,265a5.534,5.534,0,0,1-.031-.678V263.5c0-.542.031-1.083.077-1.625a19.641,19.641,0,0,1,.521-3.184c.157-.6.349-1.2.514-1.8a.021.021,0,0,1,.038,0,23.32,23.32,0,0,0-.629,3.177,30.337,30.337,0,0,0-.283,3.184c0,.29-.017.584-.017.874v.374a27.7,27.7,0,0,1,1.429-2.956,36.16,36.16,0,0,1,2.9-4.344,1.815,1.815,0,0,1,.07-.475c.038-.189.08-.377.122-.57.087-.384.185-.772.29-1.153.21-.769.489-1.513.73-2.272a.021.021,0,0,1,.038,0c-.224.751-.374,1.531-.545,2.3-.087.377-.168.755-.252,1.136-.042.189-.084.377-.122.566v.045q.514-.65,1.048-1.279c1.618-1.9,3.393-3.655,5.183-5.392.22-.217.444-.423.667-.636,0,0,.045,0,.028.031-1.709,1.782-3.39,3.582-4.983,5.469-.381.451-.751.905-1.118,1.363l.58-.384c.493-.322.992-.636,1.506-.923s1.048-.573,1.562-.835,1.125-.489,1.653-.793c.021,0,.042.024.017.035a12.164,12.164,0,0,0-1.548.856c-.517.308-1.031.615-1.538.937s-1,.629-1.5.951c-.412.269-.818.563-1.248.807a40.686,40.686,0,0,0-2.719,3.956,29.4,29.4,0,0,0-1.4,2.666l.3-.133.779-.349c.5-.22,1-.437,1.5-.654.951-.416,1.919-.793,2.852-1.248a13.214,13.214,0,0,0,1.524-.846c.021,0,.038,0,.017.035a34.363,34.363,0,0,1-5.612,2.894l-.835.37c-.231.1-.461.213-.7.3a29.664,29.664,0,0,0-1.436,3.931,80.422,80.422,0,0,0-1.845,8.205c-.486,2.771-.814,5.56-1.069,8.363-.031.349-.063.7-.1,1.048a.112.112,0,0,1-.22,0C402.941,284.116,403.071,282.694,403.221,281.278Z" transform="translate(-388.012 -247.209)" fill="#263238"/>
      <path id="Path_1404" data-name="Path 1404" d="M417.984,268.681c.154-.863.384-1.705.615-2.551,0-.024.045,0,.038,0-.213.828-.367,1.674-.524,2.513s-.3,1.719-.419,2.583c0,0-.024.017-.024,0A22.525,22.525,0,0,1,417.984,268.681Z" transform="translate(-397.614 -258.04)" fill="#263238"/>
      <path id="Path_1405" data-name="Path 1405" d="M428.986,276.5a15.628,15.628,0,0,1,1.845-1.048c.308-.157.622-.311.933-.461s.661-.287.982-.447c.021,0,.038.021,0,.031-.311.157-.6.349-.909.51l-.944.517c-.619.332-1.23.7-1.88.972a.049.049,0,0,1-.028-.073Z" transform="translate(-404.97 -263.518)" fill="#263238"/>
      <path id="Path_1406" data-name="Path 1406" d="M379.361,270.526s-5.364-1.283-7.828-4.893c-2.352-3.435-3.114-9.3-3.173-9.813.094.475,1.2,5.591,4.854,7.982C376.013,265.64,378.718,267.143,379.361,270.526Z" transform="translate(-365.536 -251.34)" fill="#263238" opacity="0.1"/>
      <path id="Path_1407" data-name="Path 1407" d="M385.611,271.36a6.85,6.85,0,0,1,1.978,3.257h-.017a7.968,7.968,0,0,0-1.985-3.233C385.565,271.374,385.593,271.343,385.611,271.36Z" transform="translate(-376.738 -261.446)" fill="#263238"/>
      <path id="Path_1408" data-name="Path 1408" d="M379.359,270.46s-5.364-1.283-7.828-4.893c-2.352-3.435-3.114-9.3-3.173-9.813a.124.124,0,0,1,0-.035s2.572,3.659,5.277,4.592S380.135,264.481,379.359,270.46Z" transform="translate(-365.534 -251.275)" fill="#8fba4e"/>
      <path id="Path_1409" data-name="Path 1409" d="M371.008,261.5a21.9,21.9,0,0,0,1.66,2.838,11.319,11.319,0,0,0,2.205,2.272c.73.58,1.5,1.1,2.237,1.67v-.028c-.14-.2-.287-.405-.44-.6-.308-.395-.643-.765-.982-1.132-.664-.723-1.345-1.433-1.943-2.216a8.09,8.09,0,0,1-.86-1.4c0-.024.024-.035.035,0,.87,1.814,2.61,2.974,3.844,4.5a8.364,8.364,0,0,1,.493.678,2.893,2.893,0,0,1,.311.545,11.339,11.339,0,0,1,1.831,1.852,7.33,7.33,0,0,0-.217-1.048,5.167,5.167,0,0,0-.57-1.359c0-.021.021-.045.035-.021a6.57,6.57,0,0,1,.626,1.349,4.69,4.69,0,0,1,.2,1.157h0a10.69,10.69,0,0,1,.727,1.129c-.024-.115-.045-.231-.066-.349-.108-.535-.224-1.069-.349-1.6a9.618,9.618,0,0,0-1.29-3.023c-.017-.021,0-.042.031-.021a11.5,11.5,0,0,1,1.429,2.956c.171.528.307,1.048.43,1.6.059.262.112.528.161.793.028.136.056.28.08.419a19.5,19.5,0,0,1,1.237,3.638A53.578,53.578,0,0,1,383,282.9a56.384,56.384,0,0,1,.37,7.2c0,.3-.024.6-.038.905a.063.063,0,1,1-.126,0c-.052-1.192-.084-2.383-.154-3.572s-.175-2.376-.3-3.565a63.709,63.709,0,0,0-1.118-6.937,17.9,17.9,0,0,0-2.072-5.654,10.624,10.624,0,0,0-1.936-2.3c-.751-.674-1.573-1.265-2.366-1.891a12.953,12.953,0,0,1-2.174-2.1,17.172,17.172,0,0,1-1.705-2.768L371,261.5C370.962,261.5,370.987,261.481,371.008,261.5Z" transform="translate(-367.241 -255.03)" fill="#263238"/>
      <path id="Path_1410" data-name="Path 1410" d="M373.635,263.755a18.753,18.753,0,0,0,1.2,2.1s0,.031-.024,0a14.477,14.477,0,0,1-1.209-2.1C373.586,263.744,373.625,263.73,373.635,263.755Z" transform="translate(-368.942 -256.493)" fill="#263238"/>
      <path id="Path_1411" data-name="Path 1411" d="M429.053,291.11s.087,7.625-4.473,9.823-6.989.37-10.1,1.108h0a11.156,11.156,0,0,1,5.847-4.236C423.947,296.9,427.941,294.287,429.053,291.11Z" transform="translate(-395.539 -274.297)" fill="#8fba4e"/>
      <path id="Path_1412" data-name="Path 1412" d="M429.053,291.11s.087,7.625-4.473,9.823-6.989.37-10.1,1.108h0a17.237,17.237,0,0,1,5.186-1.534A10.436,10.436,0,0,0,429.053,291.11Z" transform="translate(-395.539 -274.297)" opacity="0.1"/>
      <path id="Path_1413" data-name="Path 1413" d="M407.023,310.853a7.548,7.548,0,0,1,1.814-1.23c.094-.045.2-.084.3-.126a1.792,1.792,0,0,1,.15-.175c.14-.143.28-.28.43-.409a6.581,6.581,0,0,1,.919-.66c.755-.444,1.583-.755,2.355-1.167.021,0,.042.021.017.035-.381.2-.751.416-1.122.633s-.73.412-1.083.639a8.076,8.076,0,0,0-.9.674c-.08.07-.157.147-.234.224a12.36,12.36,0,0,1,1.541-.409c.835-.168,1.677-.287,2.513-.465a12.106,12.106,0,0,0,1.209-.325c.377-.308.755-.608,1.115-.94a9.3,9.3,0,0,0,1.178-1.307c0-.017.049,0,.031.021a14.118,14.118,0,0,1-1.866,2.065c.2-.077.388-.157.58-.245a9.376,9.376,0,0,0,3.886-3.233c0-.021.049,0,.035.021a10.662,10.662,0,0,1-3.145,3.019,9.47,9.47,0,0,1-1.985.94,18.612,18.612,0,0,1-2.467.584,17.209,17.209,0,0,0-2.415.573,7.306,7.306,0,0,0-2.027,1.066,9.5,9.5,0,0,0-2.733,3.386,17.054,17.054,0,0,0-1.506,5.591c0,.08-.133.08-.129,0C403.693,316.413,404.553,313.075,407.023,310.853Z" transform="translate(-388.383 -282.972)" fill="#263238"/>
      <path id="Path_1414" data-name="Path 1414" d="M428.753,312.346a2.607,2.607,0,0,1,.937-.849,3.467,3.467,0,0,0,1.115-.923c0-.021.049,0,.031.021a3.806,3.806,0,0,1-.982.881,3.474,3.474,0,0,0-1.073.888C428.767,312.381,428.739,312.363,428.753,312.346Z" transform="translate(-404.822 -286.953)" fill="#263238"/>
      <path id="Path_1415" data-name="Path 1415" d="M400.889,338.88l-.206,4.194-.636,12.808h-9.565l-.636-12.808-.206-4.194Z" transform="translate(-379.38 -305.373)" fill="#37474f"/>
      <path id="Path_1416" data-name="Path 1416" d="M400.889,338.88l-.206,4.194H389.846l-.206-4.194Z" transform="translate(-379.38 -305.373)" fill="#263238"/>
      <rect id="Rectangle_1611" data-name="Rectangle 1611" width="12.591" height="4.001" transform="translate(9.589 31.756)" fill="#37474f"/>
    </g>
    <g id="freepik--Floor--inject-152" transform="translate(42.22 160.677)">
      <path id="Path_1417" data-name="Path 1417" d="M42.22,387.2l18.151-.084,18.155-.031,36.306-.059,36.306.059,18.155.031,18.151.084-18.151.087-18.155.031-36.306.056-36.306-.059-18.155-.028Z" transform="translate(-42.22 -387.03)" fill="#263238"/>
    </g>
    <g id="freepik--Device--inject-152" transform="translate(71.075 43.889)">
      <rect id="Rectangle_1612" data-name="Rectangle 1612" width="130.809" height="87.517" rx="12.89" transform="translate(87.517) rotate(90)" fill="#263238"/>
      <rect id="Rectangle_1613" data-name="Rectangle 1613" width="80.031" height="112.577" transform="translate(3.792 9.156)" fill="#fff"/>
      <rect id="Rectangle_1614" data-name="Rectangle 1614" width="1.359" height="19.046" rx="0.68" transform="translate(53.276 4.634) rotate(90)" fill="#37474f"/>
      <circle id="Ellipse_16" data-name="Ellipse 16" cx="2.464" cy="2.464" r="2.464" transform="translate(41.293 123.693)" fill="#37474f"/>
      <rect id="Rectangle_1615" data-name="Rectangle 1615" width="55.369" height="0.779" transform="translate(16.124 24.616)" fill="#ebebeb"/>
      <rect id="Rectangle_1616" data-name="Rectangle 1616" width="55.369" height="0.779" transform="translate(16.124 27.035)" fill="#ebebeb"/>
      <rect id="Rectangle_1617" data-name="Rectangle 1617" width="55.369" height="0.779" transform="translate(16.124 100.678)" fill="#ebebeb"/>
      <rect id="Rectangle_1618" data-name="Rectangle 1618" width="55.369" height="0.779" transform="translate(16.124 103.096)" fill="#ebebeb"/>
      <circle id="Ellipse_17" data-name="Ellipse 17" cx="2.558" cy="2.558" r="2.558" transform="translate(27.028 106.37)" fill="#8fba4e"/>
      <path id="Path_1418" data-name="Path 1418" d="M206.734,361.277l-1.524-1.541.514-.507.888.9,1.852-2.9.6.388Z" transform="translate(-177.106 -250.856)" fill="#fff"/>
      <path id="Path_1419" data-name="Path 1419" d="M227.777,361.715a1.608,1.608,0,0,1,.1-.538,1.437,1.437,0,0,1,.29-.475,1.4,1.4,0,0,1,1.08-.472,1.345,1.345,0,0,1,.7.182,1.143,1.143,0,0,1,.444.468l-.437.318a.734.734,0,0,0-.143-.213.808.808,0,0,0-.178-.136.88.88,0,0,0-.2-.073,1.047,1.047,0,0,0-.206-.021.772.772,0,0,0-.377.087.811.811,0,0,0-.269.227,1.01,1.01,0,0,0-.161.318,1.164,1.164,0,0,0,0,.734.992.992,0,0,0,.178.322.947.947,0,0,0,.276.224.765.765,0,0,0,.349.084.91.91,0,0,0,.21-.028.733.733,0,0,0,.206-.077.868.868,0,0,0,.182-.14.723.723,0,0,0,.136-.21l.472.273a.9.9,0,0,1-.2.3,1.213,1.213,0,0,1-.3.213,1.527,1.527,0,0,1-.723.182,1.3,1.3,0,0,1-.584-.133,1.5,1.5,0,0,1-.454-.349,1.625,1.625,0,0,1-.3-.489A1.488,1.488,0,0,1,227.777,361.715Z" transform="translate(-191.786 -252.807)" fill="#8fba4e"/>
      <path id="Path_1420" data-name="Path 1420" d="M237.38,363.213a1.335,1.335,0,0,1-.594-.129,1.5,1.5,0,0,1-.751-.825,1.524,1.524,0,0,1-.1-.556,1.5,1.5,0,0,1,.112-.57,1.569,1.569,0,0,1,.3-.482,1.538,1.538,0,0,1,.465-.349,1.4,1.4,0,0,1,.584-.122,1.262,1.262,0,0,1,.587.133,1.454,1.454,0,0,1,.458.349,1.6,1.6,0,0,1,.311.5,1.531,1.531,0,0,1,.1.552,1.5,1.5,0,0,1-.112.57,1.481,1.481,0,0,1-.3.479,1.461,1.461,0,0,1-.461.329A1.356,1.356,0,0,1,237.38,363.213Zm-.863-1.51a1.23,1.23,0,0,0,.059.374,1.028,1.028,0,0,0,.168.318.933.933,0,0,0,.273.224.786.786,0,0,0,.367.08.807.807,0,0,0,.374-.084.9.9,0,0,0,.273-.227,1.087,1.087,0,0,0,.168-.322,1.293,1.293,0,0,0,.056-.349,1.122,1.122,0,0,0-.063-.374,1,1,0,0,0-.171-.318.758.758,0,0,0-.273-.22.772.772,0,0,0-.349-.08.793.793,0,0,0-.37.084.755.755,0,0,0-.273.227,1.028,1.028,0,0,0-.168.318,1.178,1.178,0,0,0-.07.349Z" transform="translate(-197.09 -252.775)" fill="#8fba4e"/>
      <path id="Path_1421" data-name="Path 1421" d="M246.1,361.349v1.908h-.577V360.28h.447l1.552,1.954v-1.95h.58v2.974h-.472Z" transform="translate(-203.329 -252.84)" fill="#8fba4e"/>
      <path id="Path_1422" data-name="Path 1422" d="M254.67,363.257V360.28h2v.507H255.25v.769h1.181v.468H255.25v1.234Z" transform="translate(-209.281 -252.84)" fill="#8fba4e"/>
      <path id="Path_1423" data-name="Path 1423" d="M261.56,363.257V360.28h.58v2.977Z" transform="translate(-213.764 -252.84)" fill="#8fba4e"/>
      <path id="Path_1424" data-name="Path 1424" d="M265,363.257V360.28h1.318a.87.87,0,0,1,.381.084,1.084,1.084,0,0,1,.3.227,1.151,1.151,0,0,1,.2.318.94.94,0,0,1,.07.349.982.982,0,0,1-.143.528.835.835,0,0,1-.391.349l.678,1.122h-.66l-.608-1h-.57v1Zm.58-1.506h.727a.272.272,0,0,0,.147-.038.367.367,0,0,0,.119-.1.461.461,0,0,0,.08-.154.562.562,0,0,0,.031-.189.569.569,0,0,0-.035-.192.485.485,0,0,0-.091-.154.447.447,0,0,0-.129-.1.328.328,0,0,0-.15-.035h-.7Z" transform="translate(-216.001 -252.84)" fill="#8fba4e"/>
      <path id="Path_1425" data-name="Path 1425" d="M275.418,363.257v-1.971l-.765,1.468h-.315l-.769-1.468v1.971H273V360.28h.622l.881,1.695.888-1.695h.619v2.977Z" transform="translate(-221.206 -252.84)" fill="#8fba4e"/>
      <path id="Path_1426" data-name="Path 1426" d="M285.419,362.751v.507H283.35V360.28h2.03v.507h-1.454v.7h1.255v.472h-1.255v.776Z" transform="translate(-227.939 -252.84)" fill="#8fba4e"/>
      <path id="Path_1427" data-name="Path 1427" d="M290.57,363.257v-2.977h1.08a1.568,1.568,0,0,1,.64.119,1.283,1.283,0,0,1,.461.318,1.325,1.325,0,0,1,.276.472,1.9,1.9,0,0,1,0,1.192,1.3,1.3,0,0,1-.758.769,1.611,1.611,0,0,1-.608.108Zm1.964-1.492a1.185,1.185,0,0,0-.059-.395.843.843,0,0,0-.171-.311.765.765,0,0,0-.276-.2,1,1,0,0,0-.377-.07h-.5v1.964h.5a.937.937,0,0,0,.381-.077.776.776,0,0,0,.276-.206.905.905,0,0,0,.168-.315A1.157,1.157,0,0,0,292.534,361.764Z" transform="translate(-232.636 -252.839)" fill="#8fba4e"/>
    </g>
    <g id="freepik--Envelope--inject-152" transform="translate(86.77 78.28)">
      <path id="Path_1428" data-name="Path 1428" d="M231.141,230.578H187.36V193.542l21.887-13.9,21.894,13.9Z" transform="translate(-181.188 -169.719)" fill="#8fba4e"/>
      <path id="Path_1429" data-name="Path 1429" d="M231.141,230.578H187.36V193.542l21.887-13.9,21.894,13.9Z" transform="translate(-181.188 -169.719)" opacity="0.2"/>
      <rect id="Rectangle_1619" data-name="Rectangle 1619" width="38.843" height="49.865" transform="translate(8.639 8.16)" fill="#ebebeb"/>
      <path id="Path_1430" data-name="Path 1430" d="M226.674,216.007l-8.894-9,2.988-2.953,5.2,5.259,10.792-16.921,3.544,2.258Z" transform="translate(-200.978 -178.013)" fill="#8fba4e"/>
      <path id="Path_1431" data-name="Path 1431" d="M231.141,246v27.748H187.36V246c1.88,1.048,3.729,2.181,5.591,3.271s3.708,2.223,5.55,3.355c2.051,1.248,4.1,2.52,6.147,3.8l.066-.038c-.021,0-.035.035-.052.045q2.293,1.415,4.589,2.848c1.524-.961,3.058-1.929,4.588-2.876-.017,0-.031-.031-.052-.045a.3.3,0,0,0,.066.035q3.065-1.912,6.147-3.8,2.764-1.688,5.543-3.348C227.423,248.163,229.261,247.048,231.141,246Z" transform="translate(-181.188 -212.888)" fill="#8fba4e"/>
      <g id="Group_72" data-name="Group 72" transform="translate(6.172 33.112)" opacity="0.2">
        <path id="Path_1432" data-name="Path 1432" d="M231.141,246c-1.768,1.241-3.568,2.446-5.35,3.655s-3.6,2.39-5.406,3.575q-2.831,1.856-5.672,3.676l-.171.119-5.043,3.215-.252.15-.245-.15-5.036-3.222-.178-.112q-2.848-1.824-5.679-3.683c-1.8-1.178-3.6-2.373-5.4-3.568s-3.582-2.432-5.35-3.655c1.88,1.048,3.729,2.181,5.591,3.271s3.708,2.223,5.55,3.355c2.051,1.248,4.1,2.52,6.147,3.8h0q2.306,1.422,4.6,2.855c1.524-.961,3.058-1.929,4.588-2.876h0q3.065-1.912,6.147-3.8,2.764-1.688,5.543-3.348C227.423,248.163,229.261,247.048,231.141,246Z" transform="translate(-187.36 -246)"/>
        <path id="Path_1433" data-name="Path 1433" d="M204.883,275.67c-.021,0-.035.035-.052.045l-.7.587c-1.1.926-2.223,1.814-3.365,2.677-1.4,1.048-2.82,2.1-4.253,3.1s-2.887,1.978-4.368,2.925-2.97,1.873-4.515,2.722c1.328-1.164,2.708-2.251,4.1-3.306s2.827-2.1,4.253-3.1,2.894-1.985,4.372-2.932c1.178-.755,2.376-1.5,3.6-2.195.283-.164.566-.322.856-.482Z" transform="translate(-187.536 -265.301)"/>
        <path id="Path_1434" data-name="Path 1434" d="M280.236,287.723c-1.545-.849-3.044-1.775-4.515-2.722s-2.942-1.933-4.375-2.925-2.859-2.034-4.253-3.1c-1.136-.863-2.261-1.747-3.351-2.67l-.7-.594c-.017,0-.031-.031-.052-.045a.3.3,0,0,0,.066.035c.29.164.573.322.856.486,1.22.7,2.411,1.44,3.6,2.195,1.478.947,2.925,1.933,4.365,2.932s2.859,2.034,4.253,3.1S278.908,286.559,280.236,287.723Z" transform="translate(-236.56 -265.301)"/>
      </g>
      <path id="Path_1435" data-name="Path 1435" d="M196.075,157.034a24.019,24.019,0,0,1,0-5.784A24.016,24.016,0,0,1,196.075,157.034Z" transform="translate(-186.744 -151.25)" fill="#263238"/>
      <path id="Path_1436" data-name="Path 1436" d="M181.742,162.819a21.43,21.43,0,0,1-2.17-1.922,21.018,21.018,0,0,1-1.922-2.167A24.113,24.113,0,0,1,181.742,162.819Z" transform="translate(-174.872 -156.116)" fill="#263238"/>
      <path id="Path_1437" data-name="Path 1437" d="M175.484,176.939a21.16,21.16,0,0,1-2.894.175,20.6,20.6,0,0,1-2.89-.171,20.567,20.567,0,0,1,2.89-.175A21.153,21.153,0,0,1,175.484,176.939Z" transform="translate(-169.7 -167.85)" fill="#263238"/>
      <path id="Path_1438" data-name="Path 1438" d="M181.269,184.283a24.292,24.292,0,0,1-4.089,4.092,23.949,23.949,0,0,1,4.089-4.1Z" transform="translate(-174.566 -172.737)" fill="#263238"/>
      <path id="Path_1439" data-name="Path 1439" d="M302.53,157.034a21.723,21.723,0,0,1-.171-2.894,21.081,21.081,0,0,1,.178-2.89,24.018,24.018,0,0,1,0,5.784Z" transform="translate(-255.999 -151.25)" fill="#263238"/>
      <path id="Path_1440" data-name="Path 1440" d="M309.89,162.819a24.111,24.111,0,0,1,4.092-4.089,21.013,21.013,0,0,1-1.922,2.167,21.425,21.425,0,0,1-2.17,1.922Z" transform="translate(-260.898 -156.116)" fill="#263238"/>
      <path id="Path_1441" data-name="Path 1441" d="M313,176.939a21.156,21.156,0,0,1,2.894-.171,20.532,20.532,0,0,1,2.89.175,20.563,20.563,0,0,1-2.89.171A21.153,21.153,0,0,1,313,176.939Z" transform="translate(-262.922 -167.85)" fill="#263238"/>
      <path id="Path_1442" data-name="Path 1442" d="M310.37,184.29a23.95,23.95,0,0,1,4.089,4.092,21.472,21.472,0,0,1-2.167-1.926A21.058,21.058,0,0,1,310.37,184.29Z" transform="translate(-261.211 -172.744)" fill="#263238"/>
    </g>
    <g id="freepik--Character--inject-152" transform="translate(42.898 68.354)">
      <path id="Path_1443" data-name="Path 1443" d="M125.34,416.7c-.755.245-22.257-.035-23.065-.566-.311-.2-.454-3.33-.517-7.126v-.119c0-.779-.024-1.587-.028-2.4v-.349l1.048-11.155,14.384.143-1.422,11.05v.437l-.087,2.285v.238s8.184,3.788,9.016,4.466S126.091,416.458,125.34,416.7Z" transform="translate(-81.612 -299.88)" fill="#f7a9a0"/>
      <path id="Path_1444" data-name="Path 1444" d="M125.34,437.461c-.755.245-22.257-.035-23.065-.566-.311-.2-.454-3.33-.517-7.126v-.119c0-.779-.024-1.587-.028-2.4V426.9l14.007.038v.437l-.087,2.285v.238s8.184,3.788,9.016,4.466S126.091,437.223,125.34,437.461Z" transform="translate(-81.612 -320.645)" fill="#ebebeb"/>
      <path id="Path_1445" data-name="Path 1445" d="M125.117,442.971c-.762.245-22.46.038-23.281-.493-.315-.2-.468-3.362-.545-7.189l13.979.094s8.272,3.8,9.114,4.473S125.875,442.723,125.117,442.971Z" transform="translate(-81.325 -326.103)" fill="#8fba4e"/>
      <path id="Path_1446" data-name="Path 1446" d="M127.759,454.421c-3.634-.126-18.316-.283-21.919-.129-.028,0-.028.021,0,.024,3.6.2,18.281.238,21.919.164C127.836,454.477,127.836,454.421,127.759,454.421Z" transform="translate(-84.272 -338.422)" fill="#263238"/>
      <path id="Path_1447" data-name="Path 1447" d="M157.806,446.087a2.939,2.939,0,0,0-2.184.867,2.848,2.848,0,0,0-.832,1.936c0,.021.042.021.045,0a3.376,3.376,0,0,1,2.97-2.757.024.024,0,1,0,0-.045Z" transform="translate(-116.129 -333.125)" fill="#263238"/>
      <path id="Path_1448" data-name="Path 1448" d="M137.766,436.637a5.068,5.068,0,0,0-4.064,1.642c-.035.049.031.1.073.073a20.222,20.222,0,0,1,4.015-1.538.091.091,0,0,0-.024-.178Z" transform="translate(-102.404 -326.978)" fill="#263238"/>
      <path id="Path_1449" data-name="Path 1449" d="M140.966,437.917a5.075,5.075,0,0,0-4.064,1.646c-.035.045.031.094.073.073a20.106,20.106,0,0,1,4.015-1.541.091.091,0,0,0-.024-.178Z" transform="translate(-104.486 -327.81)" fill="#263238"/>
      <path id="Path_1450" data-name="Path 1450" d="M144.175,439.2a5.082,5.082,0,0,0-4.064,1.646c-.035.045.028.1.073.073a20.27,20.27,0,0,1,4.012-1.538.094.094,0,0,0-.021-.182Z" transform="translate(-106.573 -328.644)" fill="#263238"/>
      <path id="Path_1451" data-name="Path 1451" d="M147.416,440.487a5.075,5.075,0,0,0-4.064,1.646c-.035.045.031.094.073.073a20.1,20.1,0,0,1,3.991-1.541.091.091,0,0,0,0-.178Z" transform="translate(-108.682 -329.482)" fill="#263238"/>
      <path id="Path_1452" data-name="Path 1452" d="M106.334,444.55a1.269,1.269,0,0,0,0,2.537A1.269,1.269,0,0,0,106.334,444.55Z" transform="translate(-83.805 -332.126)" fill="#fff"/>
      <path id="Path_1453" data-name="Path 1453" d="M143.495,425.073c-.73-.619-1.667-.028-2.125.6a7.632,7.632,0,0,0-1.37,3.711.041.041,0,0,0,.045.042.175.175,0,0,0,.259.119,12.525,12.525,0,0,0,3.044-2.338C143.809,426.624,144.173,425.66,143.495,425.073Zm-1.817,3.079c-.5.349-1.024.7-1.513,1.073a22.608,22.608,0,0,1,.839-2.149,8.6,8.6,0,0,1,.542-.978c.322-.479,1.747-1.681,1.891-.094.059.874-1.171,1.719-1.772,2.149Z" transform="translate(-106.508 -319.285)" fill="#263238"/>
      <path id="Path_1454" data-name="Path 1454" d="M126.75,434.65a12.732,12.732,0,0,0,3.827-.321.182.182,0,0,0,.112-.266.038.038,0,0,0,0-.059,7.611,7.611,0,0,0-3.495-1.824c-.765-.157-1.852.038-1.974.989C125.1,434.066,126.013,434.531,126.75,434.65Zm-.87-.818c-.972-1.258.9-1.342,1.461-1.206a8.035,8.035,0,0,1,1.048.349,22.345,22.345,0,0,1,2.072,1.02c-.619.052-1.227.157-1.845.231C127.893,434.3,126.418,434.507,125.88,433.832Z" transform="translate(-96.885 -324.047)" fill="#263238"/>
      <path id="Path_1455" data-name="Path 1455" d="M112.826,443.006c-5.392-.094-10.6-.273-10.991-.528-.315-.2-.468-3.362-.545-7.189h1.992C105.484,437.093,110.142,440.843,112.826,443.006Z" transform="translate(-81.325 -326.103)" opacity="0.1"/>
      <path id="Path_1456" data-name="Path 1456" d="M102.325,293.7H86.84s3.117-36.166,2.995-36.8c-.154-.811-1.069-4.47-2.286-9.254-.381-1.5-.793-3.1-1.22-4.763-1.157-4.5-2.446-9.418-3.537-13.7C81.13,222.78,79.83,217.8,79.83,217.8H92.952s1.531,4.847,3.46,11.158c3.145,10.25,7.339,24.361,7.751,27.793C104.834,262.284,102.325,293.7,102.325,293.7Z" transform="translate(-67.365 -184.618)" fill="#37474f"/>
      <path id="Path_1457" data-name="Path 1457" d="M116.323,427.22c-2.366-.049-1.688-.066-4.054-.091-1.157,0-8.761-.077-9.844.1a.024.024,0,0,0,0,.049c1.083.178,8.688.112,9.844.1,2.366-.021,1.688-.042,4.054-.091a.035.035,0,0,0,0-.07Z" transform="translate(-82.048 -320.783)" fill="#263238"/>
      <path id="Path_1458" data-name="Path 1458" d="M97.729,260.772c-.507-2.237-1.269-4.431-1.929-6.64q-2.013-6.692-4.05-13.385-1.017-3.344-2.041-6.689-.517-1.688-1.048-3.372c-.349-1.1-.737-2.188-1.048-3.3-.126-.451-.2-.2-.031.37.325,1.153.647,2.31.985,3.463q1,3.425,2.013,6.843,2.013,6.8,4.061,13.6,1.024,3.411,2.051,6.815a27.46,27.46,0,0,1,.835,3.3,15.069,15.069,0,0,1,.14,3.526c-.15,2.369-.426,4.735-.643,7.1s-.44,4.739-.657,7.1q-.654,7.073-1.3,14.143c-.052.6-.1,1.2-.15,1.8,0,.2.287.182.308,0,.51-4.658.9-9.338,1.338-14s.874-9.292,1.307-13.937c.108-1.167.234-2.334.234-3.495A14.521,14.521,0,0,0,97.729,260.772Z" transform="translate(-72.345 -190.703)" fill="#263238"/>
      <path id="Path_1459" data-name="Path 1459" d="M91.464,217.78c-.912,7.049-2.649,20.269-3.914,29.851-2.96-11.6-7.72-29.851-7.72-29.851Z" transform="translate(-67.365 -184.605)" fill="#263238"/>
      <path id="Path_1460" data-name="Path 1460" d="M78.324,417.458c-.751.245-22.254.045-23.065-.482-.311-.2-.465-3.33-.542-7.126v-.119c-.017-.779-.031-1.587-.035-2.4v-.349c-.049-5.473.349-11.151.349-11.151l14.056.091-.395,11.05v.437l-.077,2.289v.234s8.16,3.781,8.992,4.445S79.078,417.207,78.324,417.458Z" transform="translate(-51.003 -300.432)" fill="#f7a9a0"/>
      <path id="Path_1461" data-name="Path 1461" d="M78.331,438.217c-.751.245-22.254.045-23.065-.482-.311-.2-.465-3.33-.542-7.126v-.119c-.017-.779-.031-1.587-.035-2.4v-.349H68.7v.437l-.077,2.289v.234s8.164,3.771,9,4.435S79.086,437.965,78.331,438.217Z" transform="translate(-51.011 -321.191)" fill="#ebebeb"/>
      <path id="Path_1462" data-name="Path 1462" d="M78.237,443.291c-.762.245-22.46.038-23.281-.493-.315-.2-.468-3.362-.545-7.189l13.979.094s8.272,3.8,9.111,4.473S78.995,443.043,78.237,443.291Z" transform="translate(-50.828 -326.311)" fill="#8fba4e"/>
      <path id="Path_1463" data-name="Path 1463" d="M80.879,454.741c-3.638-.126-18.316-.283-21.919-.129-.028,0-.028.021,0,.021,3.6.2,18.281.241,21.919.168C80.956,454.8,80.956,454.741,80.879,454.741Z" transform="translate(-53.775 -338.63)" fill="#263238"/>
      <path id="Path_1464" data-name="Path 1464" d="M110.926,446.407a2.935,2.935,0,0,0-2.184.867,2.834,2.834,0,0,0-.832,1.936c0,.021.042.021.045,0a3.376,3.376,0,0,1,2.97-2.757.024.024,0,0,0,0-.045Z" transform="translate(-85.632 -333.333)" fill="#263238"/>
      <path id="Path_1465" data-name="Path 1465" d="M90.885,437a5.082,5.082,0,0,0-4.064,1.646c-.035.045.028.1.073.073a20.224,20.224,0,0,1,4.015-1.538.094.094,0,0,0-.024-.182Z" transform="translate(-71.906 -327.212)" fill="#263238"/>
      <path id="Path_1466" data-name="Path 1466" d="M94.086,438.237a5.064,5.064,0,0,0-4.064,1.646c-.035.045.031.094.073.073a20.1,20.1,0,0,1,4.015-1.541.091.091,0,0,0-.024-.178Z" transform="translate(-73.989 -328.018)" fill="#263238"/>
      <path id="Path_1467" data-name="Path 1467" d="M97.293,439.517a5.071,5.071,0,0,0-4.064,1.646c-.038.045.028.094.073.073a19.979,19.979,0,0,1,4.012-1.538.094.094,0,0,0-.021-.182Z" transform="translate(-76.074 -328.851)" fill="#263238"/>
      <path id="Path_1468" data-name="Path 1468" d="M100.5,440.807a5.06,5.06,0,0,0-4.064,1.646c-.035.045.031.094.073.073a20.021,20.021,0,0,1,4.015-1.541.091.091,0,0,0-.024-.178Z" transform="translate(-78.159 -329.69)" fill="#263238"/>
      <path id="Path_1469" data-name="Path 1469" d="M59.454,444.87a1.269,1.269,0,0,0,0,2.537A1.269,1.269,0,0,0,59.454,444.87Z" transform="translate(-53.308 -332.335)" fill="#fff"/>
      <path id="Path_1470" data-name="Path 1470" d="M96.594,425.393c-.734-.619-1.667-.028-2.128.6A7.629,7.629,0,0,0,93.11,429.7a.038.038,0,0,0,.045.042.175.175,0,0,0,.259.122,12.452,12.452,0,0,0,3.044-2.341C96.915,426.937,97.286,425.976,96.594,425.393Zm-1.817,3.079c-.5.349-1.024.7-1.513,1.069a22.6,22.6,0,0,1,.856-2.149,8.55,8.55,0,0,1,.542-.975c.322-.479,1.747-1.681,1.891-.1.056.863-1.174,1.723-1.775,2.153Z" transform="translate(-76.004 -319.494)" fill="#263238"/>
      <path id="Path_1471" data-name="Path 1471" d="M79.864,434.98a12.823,12.823,0,0,0,3.823-.322.178.178,0,0,0,.112-.259.038.038,0,0,0,0-.063,7.664,7.664,0,0,0-3.495-1.824c-.765-.154-1.852.042-1.974.992C78.207,434.4,79.126,434.857,79.864,434.98Zm-.87-.839c-.972-1.258.9-1.338,1.461-1.2a8.048,8.048,0,0,1,1.048.349,22.735,22.735,0,0,1,2.069,1.02c-.619.052-1.227.154-1.842.231C81,434.634,79.532,434.836,78.993,434.141Z" transform="translate(-66.382 -324.265)" fill="#263238"/>
      <path id="Path_1472" data-name="Path 1472" d="M73.931,217.78a57.773,57.773,0,0,1-1.747,11.253c-.115.412-.241.814-.374,1.2a23.446,23.446,0,0,0-3.778,1.95s-.15,5.05-.3,10.687c-.168,6.29-.349,13.322-.308,14.814.133,5.591-.7,36.229-.7,36.229l-15.485.063s2.8-34.248,2.8-36.278c-.031-3.281.748-17.791,1.352-28.37.349-6.521.671-11.532.671-11.532Z" transform="translate(-48.766 -184.605)" fill="#37474f"/>
      <path id="Path_1473" data-name="Path 1473" d="M68.089,427.606c-2.366-.038-1.688-.059-4.05-.073-1.16,0-8.765-.042-9.844.143a.024.024,0,1,0,0,.049c1.08.175,8.688.073,9.844.059,2.366-.035,1.684-.049,4.05-.108a.035.035,0,1,0,0-.07Z" transform="translate(-50.672 -321.053)" fill="#263238"/>
      <path id="Path_1474" data-name="Path 1474" d="M61.428,224.093c-.287,8.639-.587,17.278-.975,25.909s-.909,17.327-1.632,25.965c-.405,4.83-.79,11.623-1.31,16.425,0,.031.045.045.052,0,1.125-8.569,1.747-19.161,2.31-27.786s.93-17.257,1.223-25.888c.168-4.893.294-9.785.44-14.657C61.525,224.024,61.431,224.024,61.428,224.093Z" transform="translate(-52.845 -188.675)" fill="#263238"/>
      <path id="Path_1475" data-name="Path 1475" d="M103.695,252.347a29,29,0,0,0-4.442,2.324.052.052,0,0,0,.049.091c1.492-.727,3.016-1.426,4.47-2.233a.1.1,0,0,0-.077-.182Z" transform="translate(-79.987 -207.091)" fill="#263238"/>
      <path id="Path_1476" data-name="Path 1476" d="M107.006,237.06c-.1.549-.238,1.094-.349,1.642s-.192,1.048-.328,1.545a2.659,2.659,0,0,1-.72,1.293c-.2.185-.423.349-.636.524l-.349.276a1.787,1.787,0,0,1,.042-.224c.038-.21.073-.416.108-.626.077-.465.15-.93.224-1.4.14-.916.266-1.838.458-2.74,0-.038-.049-.052-.056,0-.227.895-.479,1.779-.678,2.684-.1.444-.444,2.631-.458,2.8s-.031.322-.035.482a1.747,1.747,0,0,0,0,.489c0,.042.056.035.073,0h0a1.821,1.821,0,0,0,.14-.475c.042-.154.077-.315.1-.472a.441.441,0,0,1,.024-.175c.217-.129.416-.3.619-.451s.44-.311.643-.482a2.464,2.464,0,0,0,.751-1.234,8.893,8.893,0,0,0,.259-1.573c.07-.622.119-1.248.206-1.866C107.069,237.021,107.013,237.021,107.006,237.06Z" transform="translate(-83.225 -197.13)" fill="#263238"/>
      <path id="Path_1477" data-name="Path 1477" d="M94.395,166.641c1.2,3.61,6.566,15.086,8.821,15.89,2.348.832,11.417,1.87,13.43.287.986-.779,1.328-9.086,0-8.876s-9.324.5-10.274.161-7.3-9.582-9.879-11.833C92.043,158.408,93.755,164.695,94.395,166.641Z" transform="translate(-76.279 -147.693)" fill="#f7a9a0"/>
      <path id="Path_1478" data-name="Path 1478" d="M114.221,173.777l-.129,10.341s-9.3.024-11.777-1.279-7.72-13.252-9.03-17.823.786-5.277,4.117-1.922,8.338,10.386,8.932,10.529S114.221,173.777,114.221,173.777Z" transform="translate(-75.861 -147.669)" fill="#8fba4e"/>
      <path id="Path_1479" data-name="Path 1479" d="M105.722,178.182A18.952,18.952,0,0,0,100.228,180l-.315.164c-.08.038-.157.08-.234.126-.154.08-.3.164-.454.255l-.066-.168.318-.185.231-.122c.143-.08.29-.161.437-.234a17.518,17.518,0,0,1,2.764-1.146,18.388,18.388,0,0,1,2.7-.654Zm2.076,2.611a5.53,5.53,0,0,1-.507.234,5.19,5.19,0,0,1-1.4.37c-.245.028-.489.07-.734.084l-.737.021a8.132,8.132,0,0,1-2.873-.608c-.549-.213-1.083-.472-1.618-.73-.07-.028-.136-.063-.206-.094-.168-.077-.349-.157-.507-.231l-.164-.07L98.9,179.7l.059.147c0,.042.035.084.049.126h.031l.451.2.2.1c.58.276,1.164.57,1.772.807a8.363,8.363,0,0,0,2.949.626l.755-.017a6.775,6.775,0,0,0,.751-.087,5.472,5.472,0,0,0,1.468-.381,5.591,5.591,0,0,0,.57-.262Zm-3.579-4.452a18.8,18.8,0,0,0-1.9,1.02,24.851,24.851,0,0,0-3.278,2.408l-.094.08c0,.042.035.084.049.126h0V180h.021c.059-.052.115-.1.175-.15a24.812,24.812,0,0,1,3.212-2.32,21.719,21.719,0,0,1,1.933-1.027Z" transform="translate(-79.771 -157.647)" fill="#fff"/>
      <path id="Path_1480" data-name="Path 1480" d="M146.117,203.063c0-.821.059-4.1.133-4.893h.024c.08.79.122,4.022.119,4.844a45.05,45.05,0,0,1-.185,4.893.028.028,0,0,1-.052,0C146.033,206.3,146.1,204.677,146.117,203.063Z" transform="translate(-110.465 -171.848)" fill="#263238"/>
      <path id="Path_1481" data-name="Path 1481" d="M93.275,165c1.31,4.575,6.552,16.519,9.03,17.823,1.188.626,3.942.947,6.49,1.108L94.2,160.983C92.953,160.851,92.481,162.2,93.275,165Z" transform="translate(-75.858 -147.651)" opacity="0.1"/>
      <path id="Path_1482" data-name="Path 1482" d="M60.329,189.111c.056.056,22.743-1.5,22.932-1.747.266-.349-6.916-23.414-8.716-26.787-.765-1.443-4.435-1.653-5.885-.287-3.631,3.414-6.158,14.454-6.689,17.763C61.091,183.512,60.127,188.911,60.329,189.111Z" transform="translate(-54.661 -146.608)" fill="#8fba4e"/>
      <path id="Path_1483" data-name="Path 1483" d="M83.68,215.459l-.636-.374a28.191,28.191,0,0,0-2.645-1.359l-.5-.217-.241-.1a17.124,17.124,0,0,0-2.051-.7,15.354,15.354,0,0,0-2.918-.517,19.042,19.042,0,0,0-5.875.664l-.349.1c-.087.021-.171.045-.255.073a24.192,24.192,0,0,0-3.869,1.559c-.349.164-.7.349-1.02.521l-.1.056-.384.206.031-.178.395-.2c.391-.213.786-.419,1.185-.612.328-.168.664-.325,1-.475a23.77,23.77,0,0,1,2.593-1.01l.255-.073c.157-.052.315-.1.475-.14a17.123,17.123,0,0,1,2.943-.556,18.171,18.171,0,0,1,2.991-.077,16.45,16.45,0,0,1,5.092,1.276l.238.1.416.185a27.553,27.553,0,0,1,2.645,1.4l.545.322Zm-1.174-3.844c-.58.349-1.146.7-1.709,1.069-.349.217-.667.437-1,.65l-.133.087c-.458.294-.923.577-1.4.842a9,9,0,0,1-2.743,1.048,5.278,5.278,0,0,1-1.464.073c-.245-.024-.493-.031-.734-.066l-.727-.129a8.194,8.194,0,0,1-2.687-1.185c-.493-.322-.961-.7-1.436-1.048l-.182-.136c-.147-.112-.3-.224-.447-.328l-.143-.1-.21-.143a5.242,5.242,0,0,0-2.841-.968,3.278,3.278,0,0,0-1.174.241l-.031.189a3.278,3.278,0,0,1,1.2-.252,5.05,5.05,0,0,1,2.729.961l.122.084.143.1c.133.094.266.192.395.294l.182.136c.514.391,1.024.8,1.573,1.153a8.359,8.359,0,0,0,2.754,1.216l.748.136c.248.035.5.045.751.07a5.664,5.664,0,0,0,1.517-.073,9.086,9.086,0,0,0,2.8-1.083c.521-.294,1.027-.612,1.527-.94l.129-.08.881-.577q.818-.524,1.656-1.048Zm-.384-1.237a17.767,17.767,0,0,0-1.849-.489,13.846,13.846,0,0,0-2.988-.273,17.473,17.473,0,0,0-2.988.315,19.384,19.384,0,0,0-2.9.783,24.655,24.655,0,0,0-3.7,1.684c-.07.035-.136.073-.2.112-.5.276-.982.563-1.464.86-.535.329-1.066.667-1.59,1.01-.409.262-.814.531-1.22.8l-.391.255a1.187,1.187,0,0,1-.024.161c.517-.329,1.027-.664,1.541-.992.349-.234.727-.468,1.094-.7.22-.14.44-.276.664-.409.5-.3,1.017-.6,1.534-.884l.2-.108a24.442,24.442,0,0,1,3.617-1.615,19.378,19.378,0,0,1,5.822-1.111,13.793,13.793,0,0,1,2.96.252,17.518,17.518,0,0,1,1.926.5c-.017-.059-.035-.112-.049-.161Z" transform="translate(-56.293 -179.293)" fill="#fff"/>
      <path id="Path_1484" data-name="Path 1484" d="M55.768,164.867c-6.021,6.64-12.811,17.861-9.907,20.269,2.656,2.188,12.343.1,18.434-2.275,1.16-.454-3.544-10.708-4.725-10.1a33.772,33.772,0,0,1-3.844,1.747c-.349.091,1.5-2.146,3.537-7.521C61.324,161.5,59.21,161.069,55.768,164.867Z" transform="translate(-44.816 -148.564)" fill="#f7a9a0"/>
      <path id="Path_1485" data-name="Path 1485" d="M99.918,185.092c0,1.192-2.932.958-2.932.958a2.184,2.184,0,0,1,.895,1.185c.22.877-1.048,1.611-1.048,1.611a2.729,2.729,0,0,1,.744,1.4c.126.86-1.048,1.786-1.048,1.786a2.38,2.38,0,0,1-.133,1.653c-.7,1.359-3.047,1.4-4.5,1.691a30.774,30.774,0,0,0-4.76,1.517l-2.7-10.711s6.29-3.736,8.038-3.652C93.952,182.629,99.911,183.268,99.918,185.092Z" transform="translate(-70.364 -161.671)" fill="#f7a9a0"/>
      <path id="Path_1486" data-name="Path 1486" d="M111.235,191.411a19.9,19.9,0,0,0-4.826-.591.028.028,0,0,0,0,.056c1.6.038,3.226.507,4.816.612a.039.039,0,0,0,.01-.077Z" transform="translate(-84.637 -167.066)" fill="#263238"/>
      <path id="Path_1487" data-name="Path 1487" d="M111.086,200.165a4.193,4.193,0,0,0-1.1-.059c-.391,0-.783.017-1.174.035q-1.178.052-2.348.168a.028.028,0,0,0,0,.056c.783-.035,1.566-.059,2.345-.063h1.174a4.893,4.893,0,0,0,1.108-.035.056.056,0,0,0,0-.1Z" transform="translate(-84.67 -173.099)" fill="#263238"/>
      <path id="Path_1488" data-name="Path 1488" d="M111.005,209.729a2.887,2.887,0,0,0-1,0l-1.055.066c-.7.038-1.429.08-2.146.094a.028.028,0,1,0,0,.056c.727,0,1.454,0,2.181-.031l1.069-.031a2.719,2.719,0,0,0,.965-.115.021.021,0,0,0-.017-.038Z" transform="translate(-84.897 -179.34)" fill="#263238"/>
      <path id="Path_1489" data-name="Path 1489" d="M57.933,172.826l2.32,11.532s-14.422,3.764-15.918.115,6.989-17.2,11.882-21.062,3.054,2.223,2.9,2.712a71.045,71.045,0,0,1-3.736,7.8Z" transform="translate(-44.161 -148.405)" fill="#8fba4e"/>
      <path id="Path_1490" data-name="Path 1490" d="M60.254,184.318s-14.422,3.764-15.918.115c-.8-1.964,1.279-6.79,4.134-11.435l.045-.073.059-.094c.017-.031.038-.063.059-.094a57.616,57.616,0,0,1,3.341-4.819l.122-.157a27.014,27.014,0,0,1,4.113-4.389c4.893-3.865,3.054,2.223,2.9,2.712-.045.154-.1.325-.175.51-.028.07-.056.147-.087.224-.4,1.027-1.048,2.411-1.7,3.683l-.077.154a.061.061,0,0,1-.024.049l-.042.08c-.828,1.632-1.58,3.016-1.625,3.1l2.551-1.083Z" transform="translate(-44.162 -148.379)" fill="#8fba4e"/>
      <path id="Path_1491" data-name="Path 1491" d="M65.19,178.877l-.077.154a.061.061,0,0,1-.024.049l-.175.112-1.422.926a21.361,21.361,0,0,1-2.611,1.468,6.8,6.8,0,0,1-1.429.475,2.95,2.95,0,0,1-1.51-.045c-.122-.035-.248-.063-.349-.1l-.349-.15a4.935,4.935,0,0,1-.671-.349l-.052-.031.045-.073.059-.094a.252.252,0,0,0,.052.038l.049.028a3.9,3.9,0,0,0,.594.322l.349.147.349.1a2.8,2.8,0,0,0,1.433.052,6.736,6.736,0,0,0,1.4-.454,21.614,21.614,0,0,0,2.6-1.433l1.136-.727.3-.192Zm-.349.213c-1.793.437-3.551.992-5.34,1.429-.937.234-1.887.44-2.841.594-.021.031-.042.063-.059.094l-.059.094.161-.028c.954-.161,1.9-.374,2.838-.612,1.681-.423,3.33-.947,5-1.38l.349-.091a1.036,1.036,0,0,0,.133-.031l.042-.08a.065.065,0,0,1,.024-.049Zm.115-2.9a8.343,8.343,0,0,1-1.359.584,3.593,3.593,0,0,1-1.433.182,4.623,4.623,0,0,1-2.041-.814l-.122.157a4.826,4.826,0,0,0,2.142.835,3.714,3.714,0,0,0,1.506-.2,8.1,8.1,0,0,0,1.4-.6,21.224,21.224,0,0,0,1.849-1.129c.031-.077.059-.154.087-.224a22.575,22.575,0,0,1-2.013,1.216Z" transform="translate(-52.201 -156.756)" fill="#fff"/>
      <path id="Path_1492" data-name="Path 1492" d="M69.909,192.584a34.334,34.334,0,0,0-6.951,3.634.031.031,0,0,0,.035.049c.937-.66,6.29-3.285,7.14-3.607,0,0,.042.1.059.129s.049.017.049-.021a2.188,2.188,0,0,0-.063-.28Z" transform="translate(-56.385 -168.153)" fill="#263238"/>
      <path id="Path_1493" data-name="Path 1493" d="M77.756,202.182c-.157-.8-.758-4.026-.846-4.837,0,0,0-.017.021,0,.238.755.923,3.918,1.083,4.721a44.568,44.568,0,0,1,.8,4.844c0,.028-.042.045-.052,0C78.339,205.366,78.063,203.765,77.756,202.182Z" transform="translate(-65.465 -171.307)" fill="#263238"/>
      <path id="Path_1494" data-name="Path 1494" d="M75.938,185.3c.451-.982,1-1.915,1.5-2.873s1.01-1.908,1.471-2.876h.021c-.28.66-.559,1.321-.86,1.971.091-.1.175-.21.259-.318.154-.2.294-.4.433-.608h.021a3.358,3.358,0,0,1-.4.65,3.678,3.678,0,0,1-.384.423c-.122.266-.252.531-.384.793a21.131,21.131,0,0,1-1.506,2.817C76.084,185.344,75.92,185.344,75.938,185.3Z" transform="translate(-64.832 -159.735)" fill="#263238"/>
      <path id="Path_1495" data-name="Path 1495" d="M62.165,226.422c1.7-.021,8.129-1.283,9.719-1.611-.021-.168,0-.227-.042-.465,0-.031.045-.045.052,0,.042.227.2.678.133.7-.765.3-8.191,1.6-9.862,1.457a.04.04,0,1,1,0-.08Z" transform="translate(-55.847 -188.857)" fill="#263238"/>
      <path id="Path_1496" data-name="Path 1496" d="M111.76,196.058l11.966,1.611,4.54-16.631L116.3,179.43Z" transform="translate(-88.137 -159.657)" fill="#263238"/>
      <path id="Path_1497" data-name="Path 1497" d="M113.45,196.278l11.962,1.611,4.54-16.628L117.99,179.65Z" transform="translate(-89.236 -159.8)" fill="#37474f"/>
      <path id="Path_1498" data-name="Path 1498" d="M137.446,201.781a1.307,1.307,0,0,1-1.422.992,1.048,1.048,0,0,1-.905-1.3,1.311,1.311,0,0,1,1.422-1,1.048,1.048,0,0,1,.905,1.307Z" transform="translate(-103.311 -173.341)" fill="#fff"/>
      <path id="Path_1499" data-name="Path 1499" d="M146,194.07c.5,1.4,1.926,3.219,1.947,4.323a1.272,1.272,0,0,1-.835,1.262,1.847,1.847,0,0,1,.884,1.656c-.073.517-.968.853-.968.853a1.5,1.5,0,0,1,.619,1.443c-.147.7-1.02.933-1.02.933a1.807,1.807,0,0,1,.143,1.569c-.776,1.359-6.93.734-7.65-1.632-.349-1.1,1.157-.867,1.157-.867s-2.069-.856-1.971-2.128,2.02-.853,2.02-.853-2-.846-1.747-2.156,2.1-.612,2.1-.612-1.276-1.048-.867-2.027c.674-1.59,3.058.737,4.442.552l.975-2.156Z" transform="translate(-105.402 -169.181)" fill="#f7a9a0"/>
      <path id="Path_1500" data-name="Path 1500" d="M159.507,190.7c-.349-1.366,1.44-2.827,1.286-4.194-.206-1.835-2.4-.28-3.117,2.279l-.206,2.1Z" transform="translate(-117.872 -163.742)" fill="#f7a9a0"/>
      <path id="Path_1501" data-name="Path 1501" d="M149.976,222.115a.017.017,0,1,1,0,.035,10.746,10.746,0,0,1-6.29-1.024c-.063-.031-.035-.147.038-.122a21.926,21.926,0,0,0,6.252,1.111Z" transform="translate(-108.882 -186.7)" fill="#263238"/>
      <path id="Path_1502" data-name="Path 1502" d="M150.57,214.262c.024,0,.024.042,0,.045a10.065,10.065,0,0,1-6.808-1.538c-.07-.049-.084-.161,0-.112A18.375,18.375,0,0,0,150.57,214.262Z" transform="translate(-108.918 -181.265)" fill="#263238"/>
      <path id="Path_1503" data-name="Path 1503" d="M144.61,204.488a14.007,14.007,0,0,0,6.483,1.954c.028,0,.024.045,0,.049a9.008,9.008,0,0,1-3.743-.37,6.161,6.161,0,0,1-2.778-1.562C144.537,204.526,144.569,204.46,144.61,204.488Z" transform="translate(-109.472 -175.953)" fill="#263238"/>
      <path id="Path_1504" data-name="Path 1504" d="M91.244,163.682h0c.042,1.048.073,3.428-1.541,3.25a3.446,3.446,0,0,1-1.723-.9,8.914,8.914,0,0,1-1.373-1.426,13.657,13.657,0,0,1-1.244-1.814c0-.024-.056,0-.038.028.37.64.678,1.3,1.111,1.9a7.913,7.913,0,0,0,1.447,1.569,3.442,3.442,0,0,0,1.87.888,1.3,1.3,0,0,0,1.345-.954A5.749,5.749,0,0,0,91.244,163.682Z" transform="translate(-70.937 -148.826)" fill="#263238"/>
      <path id="Path_1505" data-name="Path 1505" d="M90.954,156.336c-1.167.1-3.075-2.1-3.634-3.589a23.716,23.716,0,0,1,.556-2.306c.178-.737.349-1.566.475-2.331l4.634,1.87a12.431,12.431,0,0,0-.895,2.876,1.638,1.638,0,0,0,0,.318v.052C92.1,153.838,92.08,156.239,90.954,156.336Z" transform="translate(-72.237 -139.282)" fill="#f7a9a0"/>
      <path id="Path_1506" data-name="Path 1506" d="M94.573,153.414a.258.258,0,0,1,0,.052,3.207,3.207,0,0,1-.5-.042c-2.775-.472-2.932-3.97-2.918-4.945l1.16.465,3.145,1.276a12.315,12.315,0,0,0-.891,2.876A1.663,1.663,0,0,0,94.573,153.414Z" transform="translate(-74.734 -139.523)" fill="#263238"/>
      <path id="Path_1507" data-name="Path 1507" d="M88.525,127.724c-.482,1.747.552,6.685,1.8,7.762,1.817,1.566,4.725,1.646,6.039-.524,1.272-2.1-.189-8.53-1.583-9.5A4.291,4.291,0,0,0,88.525,127.724Z" transform="translate(-72.943 -124.138)" fill="#f7a9a0"/>
      <path id="Path_1508" data-name="Path 1508" d="M102.408,142.05s-.021.021,0,.035c.077.332.112.727-.168.9V143C102.586,142.875,102.537,142.354,102.408,142.05Z" transform="translate(-81.943 -135.34)" fill="#263238"/>
      <path id="Path_1509" data-name="Path 1509" d="M101.059,141.226c-.545.07-.349,1.153.136,1.09S101.524,141.17,101.059,141.226Z" transform="translate(-80.962 -134.803)" fill="#263238"/>
      <path id="Path_1510" data-name="Path 1510" d="M108.149,141s.031,0,.031.028c.045.349.154.716.475.779v.017C108.275,141.825,108.138,141.322,108.149,141Z" transform="translate(-85.787 -134.657)" fill="#263238"/>
      <path id="Path_1511" data-name="Path 1511" d="M108.393,139.82c.535-.129.755.947.259,1.048S107.945,139.928,108.393,139.82Z" transform="translate(-85.786 -133.882)" fill="#263238"/>
      <path id="Path_1512" data-name="Path 1512" d="M99.542,138.419a3.328,3.328,0,0,0,.395-.217.7.7,0,0,0,.349-.3.234.234,0,0,0-.084-.273.577.577,0,0,0-.584.035.846.846,0,0,0-.419.44.248.248,0,0,0,.342.311Z" transform="translate(-79.955 -132.425)" fill="#263238"/>
      <path id="Path_1513" data-name="Path 1513" d="M108.052,137.656c-.154,0-.3-.028-.451-.042a.734.734,0,0,1-.451-.129.238.238,0,0,1-.031-.283.577.577,0,0,1,.549-.2.839.839,0,0,1,.563.238.248.248,0,0,1-.178.416Z" transform="translate(-85.096 -132.05)" fill="#263238"/>
      <path id="Path_1514" data-name="Path 1514" d="M102.782,151.038a.535.535,0,0,0,.318.154.919.919,0,0,0,.349-.147s.024,0,0,.017a.465.465,0,0,1-.4.252.367.367,0,0,1-.311-.255C102.747,151.041,102.771,151.02,102.782,151.038Z" transform="translate(-82.269 -141.183)" fill="#263238"/>
      <path id="Path_1515" data-name="Path 1515" d="M103.382,140.546a1.171,1.171,0,0,0,.849.384,1.537,1.537,0,0,0,.416-.049l.077-.021.07-.024a.084.084,0,0,0,.056-.087h0a.1.1,0,0,0,0-.035h0v-.028c-.035-.262-.126-.65-.126-.65.1.031.622.171.591.035a17.323,17.323,0,0,0-1.01-3.39.031.031,0,0,0-.059,0c.2,1.076.584,2.1.8,3.184a1.991,1.991,0,0,0-.57-.073c-.035,0,.189.748.192.867h0a1.611,1.611,0,0,1-1.244-.175C103.382,140.493,103.357,140.521,103.382,140.546Z" transform="translate(-82.68 -131.833)" fill="#263238"/>
      <path id="Path_1516" data-name="Path 1516" d="M104.481,148.092a1.377,1.377,0,0,1-.468.5.6.6,0,0,1-.349.08c-.276-.024-.322-.266-.308-.482a1.415,1.415,0,0,1,.066-.349A1.768,1.768,0,0,0,104.481,148.092Z" transform="translate(-82.668 -139.107)" fill="#263238"/>
      <path id="Path_1517" data-name="Path 1517" d="M104.013,149.245a.6.6,0,0,1-.349.08c-.276-.024-.322-.266-.308-.482A.629.629,0,0,1,104.013,149.245Z" transform="translate(-82.668 -139.756)" fill="#ff9abb"/>
      <path id="Path_1518" data-name="Path 1518" d="M95.192,126.636c-.28-.388-.587-.776-.867-.807s-.311.64-.891.807c-.786.224-1.328-.423-2.446-.262-1.625.234-2.041,1.723-1.59,4,.4,2.034-.779,2.488-.779,2.488s-1.705-4.309-.765-6.06a4.907,4.907,0,0,1,5.941-2.03C94.595,125.129,95.192,126.636,95.192,126.636Z" transform="translate(-72.401 -123.871)" fill="#263238"/>
      <path id="Path_1519" data-name="Path 1519" d="M88.905,143.11s-1.2-1.555-1.908-1.122.238,2.726,1.111,3.005a.867.867,0,0,0,1.143-.521Z" transform="translate(-71.866 -135.25)" fill="#f7a9a0"/>
      <path id="Path_1520" data-name="Path 1520" d="M88.28,144v.024a2.205,2.205,0,0,1,1.2,1.324.482.482,0,0,0-.727-.1s0,.035.017.031a.538.538,0,0,1,.6.157,2.956,2.956,0,0,1,.3.465c.028.052.126.021.1-.042h0C89.751,145.08,89.108,144.035,88.28,144Z" transform="translate(-72.862 -136.608)" fill="#263238"/>
      <path id="Path_1521" data-name="Path 1521" d="M89.193,123.132a7.392,7.392,0,0,0-2.1-.283c-.8.024-3.236.6-3.75,1.188s-.3,2.936-.266,3.278.51,2.373,1.335,2.754.349-3.124,1.338-4.466A10.848,10.848,0,0,1,89.193,123.132Z" transform="translate(-69.431 -122.849)" fill="#8fba4e"/>
      <path id="Path_1522" data-name="Path 1522" d="M90.321,123.182a11.052,11.052,0,0,0-3.456,2.467c-1.01,1.342-.517,4.844-1.335,4.466a1.649,1.649,0,0,1-.79-.992,8.656,8.656,0,0,1,.835-3.921,5.315,5.315,0,0,1,3.365-2.282A8.093,8.093,0,0,1,90.321,123.182Z" transform="translate(-70.559 -122.895)" opacity="0.1"/>
      <path id="Path_1523" data-name="Path 1523" d="M86.073,132.2a13.88,13.88,0,0,1,1.244-5.165c.769-1.583,3.554-2.873,3.963-2.915,1-.1,1.293.349,1.436.227s-1.024-1.083-1.331-1.206a3.222,3.222,0,0,0-1.422-.126c-.43.077-3.04.758-3.827,2.041s-1.635,4.669-1.286,5.441c.091.185.349.269.493.535.168.349.308.751.458.989S86.08,132.28,86.073,132.2Z" transform="translate(-70.578 -122.938)" fill="#8fba4e"/>
      <path id="Path_1524" data-name="Path 1524" d="M89.871,131.014a4.964,4.964,0,0,1-.7-.37,3.324,3.324,0,0,1-.643-.5s-.038,0-.024.021a2.645,2.645,0,0,0,.6.58,2.177,2.177,0,0,0,.765.322.025.025,0,0,0,0-.049Z" transform="translate(-73.006 -127.592)" fill="#263238"/>
      <path id="Path_1525" data-name="Path 1525" d="M86.252,143.99c-.038-.063-.091-.115-.133-.175A1.017,1.017,0,0,1,86,143.6a2.134,2.134,0,0,0-.178-.433,1.657,1.657,0,0,0-.266-.276.65.65,0,0,1-.245-.349H85.28c.042.283.262.454.423.671a2.75,2.75,0,0,1,.2.465.734.734,0,0,0,.308.349C86.231,144.036,86.262,144.015,86.252,143.99Z" transform="translate(-70.91 -135.659)" fill="#263238"/>
      <path id="Path_1526" data-name="Path 1526" d="M86.493,141.2c-.1-.091-.213-.171-.311-.273a3.081,3.081,0,0,1-.255-.318c-.08-.108-.143-.224-.22-.349s-.192-.248-.276-.384c0,0-.035,0-.024.021.087.136.147.294.227.433a3.463,3.463,0,0,0,.238.349,2.23,2.23,0,0,0,.273.3.982.982,0,0,0,.349.217S86.5,141.211,86.493,141.2Z" transform="translate(-70.991 -133.928)" fill="#263238"/>
      <path id="Path_1527" data-name="Path 1527" d="M87.027,138.91a2.593,2.593,0,0,1-.594-.493c-.168-.189-.328-.388-.482-.587h-.024a3.04,3.04,0,0,0,.43.657,1.527,1.527,0,0,0,.283.259,2.124,2.124,0,0,0,.36.192S87.045,138.938,87.027,138.91Z" transform="translate(-71.33 -132.595)" fill="#263238"/>
      <path id="Path_1528" data-name="Path 1528" d="M87.723,136.243a.919.919,0,0,1-.283-.21q-.147-.136-.283-.283c-.091-.094-.182-.182-.269-.276a.933.933,0,0,1-.22-.315H86.64a.856.856,0,0,0,.164.349,2.447,2.447,0,0,0,.266.349,3.392,3.392,0,0,0,.311.283.626.626,0,0,0,.332.157.028.028,0,0,0,.01-.056Z" transform="translate(-71.795 -130.858)" fill="#263238"/>
      <path id="Path_1529" data-name="Path 1529" d="M88.39,133.634q-.154-.1-.294-.22c-.091-.08-.182-.161-.269-.245s-.189-.175-.276-.269c0,0-.035,0-.024.017a2.215,2.215,0,0,0,.227.311,2.752,2.752,0,0,0,.269.266,2.712,2.712,0,0,0,.3.227.912.912,0,0,0,.349.164.021.021,0,0,0,0-.035A1.928,1.928,0,0,0,88.39,133.634Z" transform="translate(-72.37 -129.388)" fill="#263238"/>
      <path id="Path_1530" data-name="Path 1530" d="M91.361,129.109a4.134,4.134,0,0,0-.349-.287c-.129-.091-.248-.171-.381-.248a3.946,3.946,0,0,0-.8-.374s-.031.017,0,.028c.5.308,1.01.594,1.506.909a.017.017,0,0,0,.021-.028Z" transform="translate(-73.864 -126.33)" fill="#263238"/>
      <path id="Path_1531" data-name="Path 1531" d="M93.179,127.216a2.153,2.153,0,0,0-.349-.248,4.029,4.029,0,0,0-.867-.318c-.021,0-.031.021,0,.028.269.122.538.241.8.377.126.07.255.14.374.22s.22.189.349.276h0a1.118,1.118,0,0,0-.3-.335Z" transform="translate(-75.245 -125.322)" fill="#263238"/>
      <path id="Path_1532" data-name="Path 1532" d="M95.48,125.865a1.981,1.981,0,0,0-.349-.252,2.38,2.38,0,0,0-.741-.294s-.024.024,0,.031a4.312,4.312,0,0,1,.7.349c.112.07.224.147.349.224s.213.175.328.238h0A2.17,2.17,0,0,0,95.48,125.865Z" transform="translate(-76.83 -124.456)" fill="#263238"/>
      <path id="Path_1533" data-name="Path 1533" d="M97.619,124.721a3.623,3.623,0,0,0-.349-.178,1.265,1.265,0,0,0-.349-.133v.031l.636.374a3.3,3.3,0,0,1,.517.444h0A1.188,1.188,0,0,0,97.619,124.721Z" transform="translate(-78.483 -123.865)" fill="#263238"/>
      <path id="Path_1534" data-name="Path 1534" d="M99.552,124.02a1.971,1.971,0,0,0-.681-.29c-.017,0-.024.024,0,.031a2.341,2.341,0,0,1,.633.349,3.3,3.3,0,0,1,.531.482h.017A1.58,1.58,0,0,0,99.552,124.02Z" transform="translate(-79.741 -123.422)" fill="#263238"/>
      <path id="Path_1535" data-name="Path 1535" d="M101.91,124.091a1.212,1.212,0,0,0-.1-.129,1.638,1.638,0,0,0-.245-.22,3.448,3.448,0,0,0-.591-.322v.028a2.68,2.68,0,0,1,.559.349,2.013,2.013,0,0,1,.238.217,1.108,1.108,0,0,1,.1.119.8.8,0,0,0,.1.119h.024A.559.559,0,0,0,101.91,124.091Z" transform="translate(-81.117 -123.22)" fill="#263238"/>
      <path id="Path_1536" data-name="Path 1536" d="M104.015,124.332a2.5,2.5,0,0,0-.2-.182,1.948,1.948,0,0,0-.224-.154c-.08-.049-.161-.094-.238-.147,0,0-.035.017,0,.028a1.534,1.534,0,0,1,.231.164l.2.168.206.168a2.014,2.014,0,0,0,.206.175h0A1.254,1.254,0,0,0,104.015,124.332Z" transform="translate(-82.656 -123.5)" fill="#263238"/>
    </g>
    <g id="freepik--speech-bubble--inject-152" transform="translate(68.877 54.121)">
      <path id="Path_1537" data-name="Path 1537" d="M135.725,90.7a7.594,7.594,0,0,1-12.693,4.805l-3.8.559,1.9-3.285a7.6,7.6,0,1,1,14.594-2.1Z" transform="translate(-118.975 -82.247)" fill="#fff"/>
      <path id="Path_1538" data-name="Path 1538" d="M135.25,90.574a7.643,7.643,0,0,1-1.534,3.844,6.86,6.86,0,0,1-1.489,1.471,7.374,7.374,0,0,1-1.835,1.02,7.625,7.625,0,0,1-2.044.489,8.185,8.185,0,0,1-1.048.021,7.114,7.114,0,0,1-1.048-.112,7.65,7.65,0,0,1-3.757-1.856l.087.028-3.806.577-.276.042.14-.241,1.891-3.3v.133a7.688,7.688,0,0,1,.458-6.773,7.786,7.786,0,0,1,2.38-2.534A7.688,7.688,0,0,1,135.25,90.56Zm0,0a7.533,7.533,0,0,0-11.76-6.982,7.842,7.842,0,0,0-2.275,2.481,7.531,7.531,0,0,0-.965,3.212,7.664,7.664,0,0,0,.535,3.313l.028.066-.035.063L118.863,96l-.133-.2,3.8-.535h.052l.038.035a7.475,7.475,0,0,0,3.638,1.873,6.393,6.393,0,0,0,1.048.126,7.338,7.338,0,0,0,1.048,0,7.489,7.489,0,0,0,2.03-.447,7.035,7.035,0,0,0,1.831-.989,8.138,8.138,0,0,0,.8-.667,8.7,8.7,0,0,0,.7-.786A7.636,7.636,0,0,0,135.25,90.574Z" transform="translate(-118.5 -82.12)" fill="#263238"/>
      <path id="Path_1539" data-name="Path 1539" d="M136.223,100.408l-3.243-3.285,1.09-1.076,1.894,1.919L139.9,91.79l1.293.825Z" transform="translate(-127.92 -88.411)" fill="#8fba4e"/>
    </g>
  </g>
</svg>
