<svg xmlns="http://www.w3.org/2000/svg" xmlns:xlink="http://www.w3.org/1999/xlink" width="363" height="174" viewBox="0 0 363 174">
  <defs>
    <clipPath id="clip-path">
      <rect id="Rectangle_1676" data-name="Rectangle 1676" width="363" height="174" rx="25" transform="translate(15 76)" fill="#d96060"/>
    </clipPath>
  </defs>
  <g id="Map" transform="translate(-15 -76)" clip-path="url(#clip-path)">
    <g id="Map-2" data-name="Map" transform="translate(-30 -92.021)" opacity="0.87">
      <path id="Path_2049" data-name="Path 2049" d="M0,0H395V807.925H0Z" transform="translate(30 92.021)" fill="#6e6e6e" opacity="0.07"/>
      <path id="Intersection_3" data-name="Intersection 3" d="M252.775,706,242.48,676.556,223.4,681.808,220.7,706h-4.276l6.732-60.557-11.641,1.432L190.135,705.92h-8.948l11.244-31.115-25.658-6.047-14.016,36.047L155.53,706h-7.761l6.969-17.9-27.875-10.743A316.313,316.313,0,0,1,113,706h-9.819c12.67-21.963,22.331-46.79,28.9-67l-60.026-4.616L83.942,706H75.389l-3.8-22.838L37.141,689.05l-.317,4.615L44.03,706H39.12l-2.851-4.854L35.953,706h-4.2l1.188-16.233-25.182,4.3.871,11.857H.159L0,703.711V567.744l7.523-25.831L0,541.271v-8.465l9.9.832L19.718,499.9,0,490.341V474.777L5.227,477.3,23.44,412.84,6.257,403.132,0,422.448V408.791L2.3,401.7,0,401.314V397.05l3.643.591,12.275-37.878L0,353.247v-4.606L17.184,355.7l22.015-67.8L0,291.658V283.09l59.076-5.607L16.789,228.7C13.9,228.978,5.812,229.8,0,230.318v-4.151l15.443-1.524L13.859,200.85,0,202.626V188.378l12.275-1.533L9.424,168.781c-3.452.545-6.689,1.059-9.424,1.485v-4.36l8.791-1.343L5.861,146.34,0,147.113v-4.27l5.148-.72-3.96-24.987L0,117.252v-8.46L33.1,105.6,27.875,68.2C19.061,70.027,9.681,71.425,0,72.476V63.981q2.432-.263,4.831-.559L2.376,29.761,0,29.472V20.883l1.664.2L.159.079H8.632l4.593,62.149c4.91-.8,9.661-1.592,14.254-2.626L31.755.079h4.2l-4.2,58.488C44.268,55.544,55.2,51.486,63.59,45.995c.555-.4,1.188-.875,1.821-1.273L39.2.079h4.91L55.275,19.1,76.419,6.445,75.39.079h8.552l3.8,23a176.157,176.157,0,0,0,15.442-23H113q-1.782,3.342-3.8,6.685l31.756,11.061L147.848.079h7.76L177.782,9.39,181.187.079h8.948l-.713,2.069,25.9,8.037L216.426.079H220.7l-1.346,11.379,20.272,6.366c2.772-.8,9.741-2.785,17.581-4.934L252.695,0h4.435c1.664,4.695,3.089,8.912,4.118,11.777,6.494-1.831,13.066-3.661,17.976-5.014L275.977.079h15.68l1.426,2.785L302.664.079h30.172C318.264,4.3,304.8,8.275,296.8,10.584L310.267,38.2,341.7,32.865,337.666.079h8.473l3.96,31.433,32.151-5.491L387,.079h8V33.872l-2.139,11.406,2.139.633v4.361l-2.614-.776L395,55.17V75.335l-5.386-11.674-11.8,64.616A31.291,31.291,0,0,1,387,137.906l8-4.836v5.013l-6.019,3.642a32.073,32.073,0,0,1,2.534,12.335c0,.636-.079,1.194-.079,1.83l3.564.672v14.382l-7.682-1.446a30.777,30.777,0,0,1-21.3,14.961l-11.8,37L395,229.68v4.342l-18.768-3.809c-.475,3.024-1.426,8.833-2.454,15.119L395,248.152v4.276l-21.857-2.957c-.95,5.968-1.9,11.856-2.534,15.676L395,269.777v8.6L369.026,273.5l-9.662,44.4L395,284.448v5.871l-36.27,33.955L373.223,342.1,395,329.106V338.9l-16.393,9.8,12.2,14.881,4.2-2.495v4.975l-1.584.941L395,368.952V375.6l-20.035-24.67-42.287,25.225L395,387.415v14.368l-16.393-2.947-7.919,47.347L395,452v4.352l-25.024-6.028-4.673,28.09c10.453,1.982,20.579,3.964,29.7,5.718v8.6l-19.8-3.818-6.336,44.324,19.4,3.979L395,509.034V527.4l-2.535,10.613,2.535.514V547.2l-27.242-5.521L364.036,567.7,395,573.834v4.241l-31.6-6.241-4.514,31.83L395,609.881v8.62l-37.3-6.4-4.435,31.273L395,649.105v8.482l-18.135-2.517-4.593,30.477,19.4-5.649L395,661.965V705.92h-8.157l3.089-16.711c-10.137,3.024-27.083,7.957-44.268,12.971l.475,3.74h-8.473l-.158-1.353c-1.584.477-3.089.876-4.672,1.353H302.664l34.685-10.026,3.089-21.964L284.53,691.357,291.657,706h-15.68l-16.63-34.058-12.828,3.5c1.821,5.252,6.731,19.336,10.691,30.557Zm93.365-12.733,21.619-6.286,4.831-32.308L352,651.808ZM5.227,660l2.217,29.841,63.431-10.9L66.6,653.32Zm270.038,12.414,7.364,15.04,21.144-6.684-3.96-15.437Zm-146.739.955,27.8,10.663,6.335-16.234-29.221-6.923C131.931,665.018,130.267,669.155,128.526,673.373Zm175.326-9.152,3.96,15.358,33.26-10.345,2.3-16.393Zm-76.418-19.336-3.564,32.387,33.576-9.231-12.432-25.464ZM171.288,661.2l24.073,5.65,7.6-21.167-15.2-6.286Zm89.168-19.177L271.542,664.7l73.172-21.008,2.217-15.438L272.81,617.511Zm-124.091,10.9,30.489,7.161,17.739-23.474-17.106-29.284-17.421-.477A468.93,468.93,0,0,1,136.365,652.923ZM2.93,628.334,4.593,651.49l60.66-6.6L61.689,623.32ZM213.179,642.5l29.934-3.9-9.978-20.372a30.486,30.486,0,0,1-9.741,1.592,15.756,15.756,0,0,1-1.979-.08Zm-22.727-6.605,14.016,5.809,8.632-23.793a28.214,28.214,0,0,1-6.573-3.263Zm54.641-25.225,12.988,26.578,19.639-38.833-24.073-4.138A30.7,30.7,0,0,1,245.093,610.667ZM71.35,630l62.085,4.775c3.722-11.857,6.414-21.725,8-28.17l-74.281-2.148Zm116.093,3.024L203.281,612.1a28.174,28.174,0,0,1-3.723-3.82l-27.082-.8ZM2.693,624.2l58.363-5.014L58.6,604.3,1.109,602.63Zm313.829-4.616,30.963,4.456,1.9-13.369-29.775-5.013Zm-41.734-6.048,37.536,5.412,3.168-14.085L282,599.209Zm-68.1-24.668A16.71,16.71,0,1,0,223.4,572.073,16.754,16.754,0,0,0,206.686,588.863ZM303.14,594.2l47.434,8.116,2.376-16.472-46.8-8.834ZM172.4,593.4l20.748.557a21.8,21.8,0,0,1-.4-5.093,33.709,33.709,0,0,1,.4-4.934l-17.58-8.515Zm-35.635-19.336-2.3,18.223,33.576.955,3.484-19.735-26.608-12.892Zm113.8.477a29.887,29.887,0,0,1,3.405,11.22l40.862,7,9.424-53.714ZM67.312,590.375l62.956,1.83,2.139-17.188L72.7,562.046Zm-64.618-1.83,56.066,1.592,2.059-10.823-53.77-5.65Zm304.168-15.756,46.721,8.913,1.742-12.494L311.533,546.45Zm-270.117-.318L61.61,575.1,71.192,524.8,50.524,514.778ZM8.316,569.526l24.232,2.546,14.1-59.125L27.4,503.637Zm102.709-3.5,22.648,4.934,7.365-12.255L120.29,548.678Zm133.2.159a32.871,32.871,0,0,1,4.118,4.694l56.938-37.559.713-4.138-46.88-9.549Zm-85.763-14.642,39.991,19.336a31.046,31.046,0,0,1,10.057-8.992l-6.573-26.34Zm-84.97,6.286,33.26,7.241,9.741-18.3L79.032,528.624Zm238.836-15.756,43.634,22.679L359.443,540l-45.138-9.151ZM207.24,498.862l14.887,59.126H223.4a29.34,29.34,0,0,1,8.395,1.194l16.55-52.123-7.523-18.7Zm-76.735,39.072L153.233,549l28.984-10.664L176.753,518.6Zm41.891-50.69,13.7,49.5L200.9,531.33l-12.59-50.213ZM90.752,518.677l34.685,16.791,16.234-6.764-13.779-24.271ZM315.73,522.5l44.9,9.151,6.335-44.324-43.555-8.436ZM131.852,502.841l13.7,24.191,30.014-12.573-7.127-25.7Zm129.871,8.674,45.772,9.311,7.682-43.528-40.07-7.719Zm-200.983-7.4,19.56,9.469,40.862-15.676L73.726,465.2Zm167.8-57.614L250.4,500.772l24.945-78.223ZM12.988,481.038l40.15,19.416,13.145-39.549L24.153,441.489Zm91.306-35.809L99.3,477.7l26.607,18.383,16.155-6.207,12.75-65.332c-11.324-3.979-24.47-8.595-35.952-12.653Zm86.317-12.812L206.29,494.8l33.022-10.345-23.836-59.126Zm-43.872,55.624,39.6-15.2-10.294-40.9c-4.276-1.513-10.294-3.661-17.184-6.048Zm182.3-16.711c10.453,1.989,21.381,4.137,32.072,6.206l13.3-79.5-6.81-1.273ZM75.152,461.064,95.5,475.07,99.858,446.5l-19.164-2.307Zm202.568.4c9.424,1.831,27,5.173,47.039,9.072l2.93-5.65-39.6-36.047ZM310.9,443.876l18.689,17.108,33.576-64.934-21.381-3.9ZM25.262,437.351l42.366,19.5,4.831-14.563-43.4-18.223Zm193.856-14.245,7.84,19.5,49.336-25.225L232.027,406ZM82.2,440.215l18.847,2.228,13.859-31.91c-8.79-3.1-16.234-5.729-20.51-7.242Zm207.32-15.835,18.213,16.631,29.617-49.656-35.319-6.365Zm-237.333.238,22.965,9.629,11.166-33.581L63.51,393.583ZM189.5,428.279l25.895-7.4L227.513,404.8l-46.88-12.016Zm-55.671-15.6,40.863,14.4-9.661-38.435-23.282-7ZM31.439,415.865l16.947,7.082L71.192,360.56,48.94,353.875Zm64.223-16.632,34.21,12.016,7.84-30.875-32.548-9.708ZM264.653,405.6l14.809,3.819,7.523-23.475-15.6-5.252ZM43.793,287.429,7.6,398.995l17.025,9.628L59.313,286Zm194.49,111.486,22.332,5.729,6.81-25.225L248.5,373.053Zm-26.528-52.281-15.522,8.992,9.819,34.854,23.995,6.128,21.223-53.4ZM65.094,389.525c4.751,1.512,16.393,5.173,22.649,7.083l9.423-28.329-21.935-6.525Zm109.361-21.246,3.8,15.2,22.965,5.888-8.791-31.512Zm75.547.8,38.249,12.812,12.275-38.435L265.682,329.6ZM125.6,367.96l37.14,11.061-9.265-36.765Zm180.79,3.5,13.621,2.467L346.3,358.251c1.267-6.047,4.039-18.621,7.048-32.546l-30.092-7.162ZM83.7,305.731,72.934,352.2l47.91,14.324,31.517-28.886-8.473-33.661Zm81.8,26.817,7.919,31.433,34.527-19.974c-4.118-5.571-16.155-21.645-19.877-26.658Zm185.779,22.6,18.293-10.9-12.591-15.437Zm-300.05-9.39L68.9,351.01l6.889-29.762L59.63,316.076ZM191.56,314.883l20.511,27.454,40.862-3.5.792-1.989-41.812-35.73Zm75.706,10.743,34.606,13.766,7.919-24.907-33.26-12.176Zm-28.113-6.765,16.234,13.846,13.541-34.217-10.216-7.481Zm-77.685-2.228,2.929,11.539,21.065-14.245-7.364-9.31Zm163.052-2.069,29.7,7c4.276-19.416,8.79-40.185,10.611-48.78l-25.5-4.775ZM68.341,285.121l-7.6,26.817,16,5.172,7.76-33.5Zm133.751,2.148,33.814,28.806,19.4-27.613-27.4-19.894Zm-20.589,14.8c2.376,3.024,5.7,7.241,7.444,9.469l19.56-13.289-9.979-8.515Zm96.532-3.661,33.023,12.016,5.068-16c-6.652-3.342-18.214-9.39-30.092-16.233Zm-132.167-44.4L159.33,307.72l37.3-26.975-10.3-34.536Zm-56.938,29.2-4.276,18.3,58.126-1.751L137.474,278.6Zm142.621-17.268,39.041,28.409L278.67,273.9c-9.9-5.889-19.4-12.175-25.9-17.825a39.844,39.844,0,0,1-3.167-3.183Zm24.628-18.3a24.368,24.368,0,0,0,2.059,1.989c14.65,12.653,46.484,29.523,60.5,36.685l9.344-29.284-38.012-38.595ZM62.164,220.665l6.573,55.942,19.639-1.91-7.444-56.817Zm134.149,29.761,7.522,25.146,19.005-13.687L215,241.434ZM92.573,274.3l42.842-4.058-2.059-8.275-44.425-15.6ZM18.056,200.372l1.663,25.306L59.71,271.832l-8.948-75.518Zm323.887,59.444,24.47,4.615,5.7-35.014-19.242-3.9ZM205.261,204.192,226.4,259.258l18.135-13.13c-11.008-16.79-19.956-44.642-24.787-61.671ZM85.129,217.243,88.3,241.672l43.792,15.359-11.325-45.12Zm43.792-30.557,15.838,63.263,40.308-7.878-18.056-60.08Zm167.566,26.18,34.526,35.094L345.9,201.088,323.491,189.55ZM189.026,226.235l6.019,20.053,18.451-8.912-11.244-29.2Zm48.781-13.528c3.88,10.425,8.395,20.69,13.3,28.25L264.336,229.5l-11.72-22.52Zm18.769-7.4,11.086,21.326,16.313-14.165-14.333-12.256Zm-81.091-24.271,12.037,40.185,30.805-42.015c-.317-1.195-.633-2.308-.871-3.343ZM59.155,195.279l2.534,21.167,58.046-8.594-4.91-19.417ZM280.57,168.065l-8.157,28.965,14.809,12.653,46.8-40.345a31,31,0,0,1-3.089-7.48Zm-54.641,6.764c2.059,7.8,5.781,20.69,10.454,33.82l31.992-12.414,7.761-27.613ZM326.9,186.606l20.272,10.425,4.356-13.528a31.335,31.335,0,0,1-12.354-7.48ZM13.621,168.144l2.851,18.144,31.914-3.9-4.435-18.939C37.7,164.4,24.946,166.394,13.621,168.144Zm43.08,13.21,57.413-7.083-2.217-8.435-59.472-2.785Zm70.874-8.754,35.16-4.3-21.223-34.217ZM344,153.979a16.709,16.709,0,1,0,16.708-16.79A16.753,16.753,0,0,0,344,153.979Zm-199.717-23.4,23.044,37.163,13.542-1.672.079-41.22Zm-23.44,35.889,21.381-58.886L102,93.343Zm64.382-42.255-.08,41.379,44.9-5.491L225.3,117.932ZM10.057,145.783l2.851,18.144L43,159.311l-4.038-17.427ZM69.45,110.61l8.71,49.417,32.706,1.512L97.087,107.985Zm-28.509,2.706,10.532,45.437,22.332,1.035-8.632-48.78Zm191.244,28.647,1.98,17.586,25.261-3.1-2.692-17.507Zm28.984-29.6,6.651,43.051,28.668-3.5L289.756,107.9Zm32.785-5.093,6.81,44.086,29.933-3.661a30.981,30.981,0,0,1,9.344-16.472l-14.1-28.966ZM5.386,116.738l3.959,24.827,28.588-3.82-5.464-23.634Zm224.028.636,2.3,20.371L256.1,134.8l-3.246-21.088Zm82.832-75.2L352.4,124.3a1.849,1.849,0,0,0,.634-.159l-10.77-87.056Zm38.328-6.525,10.77,87.534c1.03.079,1.979.159,3.009.238l17.026-92.945ZM145.947,121.831l36.032-5.65,15.046-54.112-25.816-9.788Zm40.625-6.366,21.936-3.422,10.216-41.7-17.739-6.764Zm26.371-4.058,32.943-5.173L242.48,79.5,222.6,71.936ZM34.607,86.5l2.613,18.7,57.651-5.57L88.614,75.676Zm217.535,1.512,2.138,16.87L321.987,94.3l-8.711-17.9ZM122.982,96.286l20.669,7.321,8.79-24.27-22.174-9.231ZM100.73,88.329l18.294,6.525,7.364-26.419L91.861,53.952ZM244.222,25.385l7.365,58.409L279.3,78.541c-3.247-9.469-15.284-45.6-19.322-57.534ZM68.183,53.156C58.6,59.364,46.168,63.979,31.993,67.4l2.059,14.96L87.585,71.618,80.378,43.607A92.011,92.011,0,0,1,68.183,53.156ZM264.1,19.894l19.4,57.932,27.875-5.332L283.1,14.562ZM131.455,65.968l22.411,9.39,14.175-39.152-25.816-8.992ZM202.331,59.6l39.6,15.12-3.247-25.783-27-9.867ZM87.268,36.685l3.167,12.255L127.5,64.376l10.769-38.515-33.656-11.7A164.443,164.443,0,0,1,87.268,36.685Zm85.366,11.458,25.816,9.868L208.586,35.57l5.068-17.029-27.162-8.435Zm40.545-13.05,24.945,9.072-2.376-18.7-18.055-5.65ZM57.413,22.758,68.9,42.255a106.179,106.179,0,0,0,11.72-10.823L77.211,10.9Zm87.505-3.581,26.054,9.072,5.385-14.881-25.1-10.5ZM83.942,706ZM44.03,706ZM346.139,705.92ZM8.632,705.92Z" transform="translate(30 92.021)" fill="#fff"/>
    </g>
  </g>
</svg>
