<svg xmlns="http://www.w3.org/2000/svg" width="203.178" height="151.392" viewBox="0 0 203.178 151.392">
  <g id="reset_password" data-name="reset password" transform="translate(0 -55)">
    <g id="freepik--background-complete--inject-67" transform="translate(0 55)">
      <rect id="Rectangle_1546" data-name="Rectangle 1546" width="203.178" height="0.102" transform="translate(0 133.041)" fill="#ebebeb"/>
      <path id="Path_1301" data-name="Path 1301" d="M118.99,169.918H40.526a2.32,2.32,0,0,1-2.316-2.32V57.3A2.32,2.32,0,0,1,40.526,55H118.99a2.32,2.32,0,0,1,2.32,2.32V167.6A2.32,2.32,0,0,1,118.99,169.918ZM40.526,55.081A2.219,2.219,0,0,0,38.312,57.3V167.6a2.219,2.219,0,0,0,2.215,2.219H118.99a2.223,2.223,0,0,0,2.219-2.219V57.3a2.223,2.223,0,0,0-2.219-2.219Z" transform="translate(-22.683 -55)" fill="#ebebeb"/>
      <path id="Path_1302" data-name="Path 1302" d="M335.288,169.918H256.82a2.324,2.324,0,0,1-2.32-2.32V57.3a2.324,2.324,0,0,1,2.32-2.3h78.467a2.32,2.32,0,0,1,2.312,2.3V167.6A2.32,2.32,0,0,1,335.288,169.918ZM256.82,55.081A2.223,2.223,0,0,0,254.6,57.3V167.6a2.223,2.223,0,0,0,2.219,2.219h78.467a2.223,2.223,0,0,0,2.219-2.219V57.3a2.223,2.223,0,0,0-2.219-2.219Z" transform="translate(-151.082 -55)" fill="#ebebeb"/>
      <rect id="Rectangle_1547" data-name="Rectangle 1547" width="12.829" height="0.102" transform="translate(169.991 136.91)" fill="#ebebeb"/>
      <rect id="Rectangle_1548" data-name="Rectangle 1548" width="13.576" height="0.102" transform="translate(122.691 135.808)" fill="#ebebeb"/>
      <rect id="Rectangle_1549" data-name="Rectangle 1549" width="25.369" height="0.102" transform="translate(161.157 140.685)" fill="#ebebeb"/>
      <rect id="Rectangle_1550" data-name="Rectangle 1550" width="7.814" height="0.102" transform="translate(21.317 140.002)" fill="#ebebeb"/>
      <rect id="Rectangle_1551" data-name="Rectangle 1551" width="12.309" height="0.102" transform="translate(32.752 140.002)" fill="#ebebeb"/>
      <rect id="Rectangle_1552" data-name="Rectangle 1552" width="22.171" height="0.102" transform="translate(77.037 138.287)" fill="#ebebeb"/>
      <rect id="Rectangle_1553" data-name="Rectangle 1553" width="70.608" height="17.701" transform="translate(152.237 62.433) rotate(90)" fill="#f0f0f0"/>
      <rect id="Rectangle_1554" data-name="Rectangle 1554" width="15.572" height="15.758" transform="translate(151.266 64.493) rotate(90)" fill="#f5f5f5"/>
      <path id="Path_1303" data-name="Path 1303" d="M351.257,213.21H344.28a1.625,1.625,0,0,0,1.625,1.625h3.747A1.625,1.625,0,0,0,351.257,213.21Z" transform="translate(-204.38 -148.92)" fill="#e6e6e6"/>
      <rect id="Rectangle_1555" data-name="Rectangle 1555" width="15.572" height="15.758" transform="translate(151.266 81.466) rotate(90)" fill="#f5f5f5"/>
      <rect id="Rectangle_1556" data-name="Rectangle 1556" width="15.572" height="15.758" transform="translate(151.266 98.436) rotate(90)" fill="#f5f5f5"/>
      <rect id="Rectangle_1557" data-name="Rectangle 1557" width="15.572" height="15.758" transform="translate(151.266 115.405) rotate(90)" fill="#f5f5f5"/>
      <path id="Path_1304" data-name="Path 1304" d="M351.257,255H344.28a1.625,1.625,0,0,0,1.625,1.625h3.747A1.625,1.625,0,0,0,351.257,255Z" transform="translate(-204.38 -173.729)" fill="#e6e6e6"/>
      <path id="Path_1305" data-name="Path 1305" d="M351.257,296.73H344.28a1.625,1.625,0,0,0,1.625,1.625h3.747A1.625,1.625,0,0,0,351.257,296.73Z" transform="translate(-204.38 -198.502)" fill="#e6e6e6"/>
      <path id="Path_1306" data-name="Path 1306" d="M351.257,338.49H344.28a1.625,1.625,0,0,0,1.625,1.625h3.747A1.625,1.625,0,0,0,351.257,338.49Z" transform="translate(-204.38 -223.292)" fill="#e6e6e6"/>
      <rect id="Rectangle_1558" data-name="Rectangle 1558" width="70.608" height="8.842" transform="translate(161.08 62.433) rotate(90)" fill="#f5f5f5"/>
      <rect id="Rectangle_1559" data-name="Rectangle 1559" width="70.608" height="17.701" transform="translate(171.535 62.437) rotate(90)" fill="#f0f0f0"/>
      <rect id="Rectangle_1560" data-name="Rectangle 1560" width="15.572" height="15.758" transform="translate(170.564 64.493) rotate(90)" fill="#f5f5f5"/>
      <path id="Path_1307" data-name="Path 1307" d="M398.747,213.21H391.77a1.625,1.625,0,0,0,1.625,1.625h3.751A1.625,1.625,0,0,0,398.747,213.21Z" transform="translate(-232.572 -148.92)" fill="#e6e6e6"/>
      <rect id="Rectangle_1561" data-name="Rectangle 1561" width="15.572" height="15.758" transform="translate(170.564 81.462) rotate(90)" fill="#f5f5f5"/>
      <rect id="Rectangle_1562" data-name="Rectangle 1562" width="15.572" height="15.758" transform="translate(170.568 98.436) rotate(90)" fill="#f5f5f5"/>
      <rect id="Rectangle_1563" data-name="Rectangle 1563" width="15.572" height="15.758" transform="translate(170.564 115.405) rotate(90)" fill="#f5f5f5"/>
      <path id="Path_1308" data-name="Path 1308" d="M398.747,255H391.77a1.625,1.625,0,0,0,1.625,1.625h3.751A1.625,1.625,0,0,0,398.747,255Z" transform="translate(-232.572 -173.729)" fill="#e6e6e6"/>
      <path id="Path_1309" data-name="Path 1309" d="M398.747,296.73H391.77a1.625,1.625,0,0,0,1.625,1.625h3.751A1.625,1.625,0,0,0,398.747,296.73Z" transform="translate(-232.572 -198.502)" fill="#e6e6e6"/>
      <path id="Path_1310" data-name="Path 1310" d="M398.747,338.49H391.77a1.625,1.625,0,0,0,1.625,1.625h3.751A1.625,1.625,0,0,0,398.747,338.49Z" transform="translate(-232.572 -223.292)" fill="#e6e6e6"/>
      <rect id="Rectangle_1564" data-name="Rectangle 1564" width="70.608" height="8.842" transform="translate(180.377 62.433) rotate(90)" fill="#f5f5f5"/>
      <rect id="Rectangle_1565" data-name="Rectangle 1565" width="5.169" height="14.101" transform="translate(164.144 48.332)" fill="#e0e0e0"/>
      <path id="Path_1311" data-name="Path 1311" d="M364,175.307h19.716l2.934-22.817H366.934Z" transform="translate(-216.086 -112.874)" fill="#e6e6e6"/>
      <path id="Path_1312" data-name="Path 1312" d="M358.46,175.307h21.464l2.938-22.817H361.394Z" transform="translate(-212.798 -112.874)" fill="#f0f0f0"/>
      <path id="Path_1313" data-name="Path 1313" d="M381.322,176.135l2.471-19.225H365.925l-2.475,19.225Z" transform="translate(-215.76 -115.498)" fill="#fff"/>
      <ellipse id="Ellipse_14" data-name="Ellipse 14" cx="5.222" cy="4.592" rx="5.222" ry="4.592" transform="matrix(0.729, -0.684, 0.684, 0.729, 150.91, 51.242)" fill="#e6e6e6"/>
      <rect id="Rectangle_1566" data-name="Rectangle 1566" width="55.143" height="116.539" transform="translate(128.449 133.041) rotate(180)" fill="#e6e6e6"/>
      <rect id="Rectangle_1567" data-name="Rectangle 1567" width="55.143" height="116.539" transform="translate(127.222 133.041) rotate(180)" fill="#f5f5f5"/>
      <rect id="Rectangle_1568" data-name="Rectangle 1568" width="111.598" height="50.742" transform="translate(125.024 18.973) rotate(90)" fill="#fff"/>
      <rect id="Rectangle_1569" data-name="Rectangle 1569" width="111.598" height="0.926" transform="translate(75.208 18.973) rotate(90)" fill="#e6e6e6"/>
      <rect id="Rectangle_1570" data-name="Rectangle 1570" width="53.322" height="3.316" transform="translate(126.316 55.167) rotate(180)" fill="#f5f5f5"/>
      <rect id="Rectangle_1571" data-name="Rectangle 1571" width="7.684" height="49.831" transform="translate(62.587 129.884) rotate(180)" fill="#f0f0f0"/>
      <rect id="Rectangle_1572" data-name="Rectangle 1572" width="37.901" height="3.157" transform="translate(61.112 133.041) rotate(180)" fill="#f0f0f0"/>
      <rect id="Rectangle_1573" data-name="Rectangle 1573" width="33.167" height="49.831" transform="translate(21.736 80.052)" fill="#f5f5f5"/>
      <rect id="Rectangle_1574" data-name="Rectangle 1574" width="27.124" height="16.344" transform="translate(24.755 86.184)" fill="#f0f0f0"/>
      <rect id="Rectangle_1575" data-name="Rectangle 1575" width="27.124" height="16.344" transform="translate(24.755 107.408)" fill="#f0f0f0"/>
      <rect id="Rectangle_1576" data-name="Rectangle 1576" width="7.591" height="2.243" rx="1.122" transform="translate(30.257 90.565) rotate(90)" fill="#f5f5f5"/>
      <rect id="Rectangle_1577" data-name="Rectangle 1577" width="7.591" height="2.243" rx="1.122" transform="translate(30.253 111.785) rotate(90)" fill="#f5f5f5"/>
      <path id="Path_1314" data-name="Path 1314" d="M113.635,175.292c-.857.431-3.194-.033-2.418,1.548a13.41,13.41,0,0,0,1.6,2.316c.87,1.073.707,2.239-.321,2.662a1.268,1.268,0,0,0-.569.406c-.471.679.646,1.589,1.195,2.267s.768,1.345.366,1.853-1.382.349-2.121.52c-1.784.406.049,2.845-.138,4.125-.13.861-.833,1.105-1.784,1.219-.776.1-1.812.167-1.857.963-.037.691.861,1.471,1.1,2.194a2.263,2.263,0,0,1-.175,1.91,2.085,2.085,0,0,1-1.4.914c-.882.187-2.215,0-2.28.987-.028.443.28.837.065,1.248a1.418,1.418,0,0,1-1.032.61,7.574,7.574,0,0,1-2.544-.045c-1.036-.191-2.564-1.105-2-1.983a1.2,1.2,0,0,1,.813-.459c.248-.053.971.024,1.065-.142s-.154-.813-.167-1.048a4.974,4.974,0,0,1,.3-1.9,5.823,5.823,0,0,1,1.337-2.117c.248-.248.638-.431.687-.792a1.747,1.747,0,0,0-.406-1.113,7.944,7.944,0,0,1-1.219-1.69c-.349-.935.5-1.219,1.276-1.447.711-.191,1.625-.439,1.4-1.3-.175-.622-.955-1.13-1.191-1.735-.317-.813.451-.841,1-1.134a1.45,1.45,0,0,0,.638-1.9c-.406-1.4-3-3.385-1.686-4.3.337-.232.646-.309.849-.658a7.318,7.318,0,0,1,.524-1.174c.443-.536,1.361-.626,1.841-1.126.983-1.02-1.142-2.844.813-3.251a2.3,2.3,0,0,0,1.134-.467c.179-.167.321-.967.52-1.024.89-.248,2.5,1.479,3,2.011C112.4,172.866,114.667,174.776,113.635,175.292Z" transform="translate(-58.886 -123.388)" fill="#e0e0e0"/>
      <path id="Path_1315" data-name="Path 1315" d="M86.607,191.31c.528-.979,2.844-1.955,1.3-3.088a12.849,12.849,0,0,0-2.649-1.382,1.97,1.97,0,0,1-1.138-2.922,1.625,1.625,0,0,0,.289-.76c.057-.987-1.418-1.219-2.263-1.577s-1.4-.9-1.313-1.674c.093-.849,1.028-1.219,1.589-1.849,1.357-1.524-1.577-2.9-2.085-4.311-.345-.963.142-1.625.918-2.361.63-.585,1.508-1.3,1.117-2.141-.333-.731-1.544-.971-2.137-1.569a2.869,2.869,0,0,1-.87-2.06,2.654,2.654,0,0,1,.744-1.8c.679-.74,1.959-1.369,1.483-2.438-.215-.471-.7-.683-.727-1.219a1.808,1.808,0,0,1,.589-1.268,7.607,7.607,0,0,1,2.267-1.532c1.016-.447,2.844-.463,2.844.784a1.528,1.528,0,0,1-.463.971c-.191.207-.87.573-.861.813s.573.736.707.971a6.413,6.413,0,0,1,.752,2.133,8.005,8.005,0,0,1-.045,3c-.085.406-.333.837-.183,1.239a1.9,1.9,0,0,0,.975.874,8.528,8.528,0,0,1,1.991.963c.813.744.223,1.573-.354,2.276-.524.638-1.219,1.471-.54,2.2.488.528,1.447.561,1.979,1.036.711.638.053,1.146-.276,1.784a1.945,1.945,0,0,0,.455,2.341c1.13,1.174,4.47,1.625,3.787,3.357a3.135,3.135,0,0,0-.406,1.2,11.476,11.476,0,0,1,.167,1.532c-.106.813-.866,1.487-1.024,2.3-.321,1.654,2.523,2.19,1.044,3.836a2.812,2.812,0,0,0-.748,1.187c-.069.276.232,1.187.085,1.369-.65.813-2.991.037-3.718-.2C89,193.021,85.977,192.476,86.607,191.31Z" transform="translate(-47.118 -115.598)" fill="#f5f5f5"/>
      <path id="Path_1316" data-name="Path 1316" d="M82.62,235.89s.28,6.546,11,6.546,11-6.546,11-6.546Z" transform="translate(-49.047 -162.384)" fill="#f0f0f0"/>
    </g>
    <g id="freepik--Shadow--inject-67" transform="translate(22.801 197.192)">
      <ellipse id="freepik--path--inject-67" cx="78.788" cy="4.6" rx="78.788" ry="4.6" transform="translate(0 0)" fill="#f5f5f5"/>
    </g>
    <g id="freepik--Character--inject-67" transform="translate(106.824 77.889)">
      <path id="Path_1317" data-name="Path 1317" d="M307.681,396.885l-3.259-.049-.752-7.566,3.263.049Z" transform="translate(-287.096 -276.326)" fill="#ffb573"/>
      <path id="Path_1318" data-name="Path 1318" d="M346.359,397H343.1l-2.54-7.554h3.259Z" transform="translate(-308.996 -276.433)" fill="#ffb573"/>
      <path id="Path_1319" data-name="Path 1319" d="M336.917,407.11h3.974a.288.288,0,0,1,.28.223l.642,2.9a.471.471,0,0,1-.475.577c-1.28-.02-2.215-.1-3.824-.1-.992,0-3.982.106-5.352.106s-1.548-1.353-.987-1.479a12.854,12.854,0,0,0,5.21-2.032.813.813,0,0,1,.532-.2Z" transform="translate(-303.248 -286.917)" fill="#263238"/>
      <path id="Path_1320" data-name="Path 1320" d="M294.025,407l3.56.057a.285.285,0,0,1,.276.224l.6,2.909a.471.471,0,0,1-.475.573c-1.288-.041-3.141-.146-4.758-.171-1.885-.028-3.519.049-5.734,0-1.337-.02-1.686-1.378-1.126-1.491,2.56-.52,4.645-.549,6.871-1.873a1.52,1.52,0,0,1,.788-.228Z" transform="translate(-276.671 -286.852)" fill="#263238"/>
      <path id="Path_1321" data-name="Path 1321" d="M283.5,165.844a73.209,73.209,0,0,1-3.442,6.7c-.63,1.085-1.288,2.162-2,3.218a35.506,35.506,0,0,1-2.308,3.125l-.321.382-.163.191c-.057.065-.093.114-.207.232a3.93,3.93,0,0,1-1.731,1.13,3.251,3.251,0,0,1-1.28.134,3.414,3.414,0,0,1-1.1-.284,4.69,4.69,0,0,1-1.353-.931,8.664,8.664,0,0,1-1.422-1.869,19.058,19.058,0,0,1-.922-1.812,36.082,36.082,0,0,1-2.243-7.3l2.341-.727c.5,1.065,1.016,2.166,1.556,3.214s1.093,2.1,1.69,3.06a15.335,15.335,0,0,0,.914,1.361,5.4,5.4,0,0,0,.894.959c.122.093.215.114.167.073a.614.614,0,0,0-.219-.069,1,1,0,0,0-.378.028c-.244.077-.28.134-.252.081l.451-.622a57.51,57.51,0,0,0,3.6-5.969c1.117-2.076,2.207-4.246,3.226-6.347Z" transform="translate(-264.14 -142.478)" fill="#ffb573"/>
      <path id="Path_1322" data-name="Path 1322" d="M296.977,160.068c.878,2.991-5.311,11.146-5.311,11.146L285.42,167.2a39.746,39.746,0,0,1,4.328-7.314C292.3,156.606,296.01,156.785,296.977,160.068Z" transform="translate(-276.262 -138.746)" fill="#8fba4e"/>
      <path id="Path_1323" data-name="Path 1323" d="M296.977,160.068c.878,2.991-5.311,11.146-5.311,11.146L285.42,167.2a39.746,39.746,0,0,1,4.328-7.314C292.3,156.606,296.01,156.785,296.977,160.068Z" transform="translate(-276.262 -138.746)" opacity="0.2"/>
      <path id="Path_1324" data-name="Path 1324" d="M298.417,172.35c-1.284.549-3.174,3.657-4.157,5.933l2.649,1.7a49.9,49.9,0,0,0,3.982-6.242C300.055,172.825,299.1,172.061,298.417,172.35Z" transform="translate(-281.51 -147.516)" opacity="0.2"/>
      <path id="Path_1325" data-name="Path 1325" d="M266.027,171.676,266.84,168l-3.71-.028s-.992,2.763,1,4.064Z" transform="translate(-262.884 -144.953)" fill="#ffb573"/>
      <path id="Path_1326" data-name="Path 1326" d="M266.747,159.56l-2.975,1.069-.313,2.349,3.71.028Z" transform="translate(-263.226 -139.96)" fill="#ffb573"/>
      <path id="Path_1327" data-name="Path 1327" d="M303.68,389.27l.386,3.9,3.259.053-.382-3.9Z" transform="translate(-287.102 -276.326)" opacity="0.2"/>
      <path id="Path_1328" data-name="Path 1328" d="M343.819,389.46H340.56l1.308,3.893h3.263Z" transform="translate(-308.996 -276.439)" opacity="0.2"/>
      <path id="Path_1329" data-name="Path 1329" d="M318.727,158.029c-3.515,12.39-2.8,25.539-3.121,28.2-2.552-.183-12.162-.9-17.4-1.292-2.284-18.566,2.284-28.1,2.284-28.1s1.122-.215,2.641-.374c.475-.049.992-.089,1.528-.118.3,0,.6-.028.9-.033a65.12,65.12,0,0,1,7.4.549c.463.057.935.13,1.394.2s.837.15,1.219.228C317.357,157.643,318.727,158.029,318.727,158.029Z" transform="translate(-283.473 -138.031)" fill="#8fba4e"/>
      <path id="Path_1330" data-name="Path 1330" d="M318.727,158.029c-3.515,12.39-2.8,25.539-3.121,28.2-2.552-.183-12.162-.9-17.4-1.292-2.284-18.566,2.284-28.1,2.284-28.1s1.122-.215,2.641-.374c.475-.049.992-.089,1.528-.118.3,0,.6-.028.9-.033a65.12,65.12,0,0,1,7.4.549c.463.057.935.13,1.394.2s.837.15,1.219.228C317.357,157.643,318.727,158.029,318.727,158.029Z" transform="translate(-283.473 -138.031)" opacity="0.2"/>
      <path id="Path_1331" data-name="Path 1331" d="M340.344,173.62c-.313,1.2.045,6.668,1.3,8.017.171-1.751.406-3.58.7-5.449Z" transform="translate(-308.804 -148.307)" opacity="0.2"/>
      <path id="Path_1332" data-name="Path 1332" d="M323.5,137c-.642,2.345-1.434,6.672.114,8.383a8.312,8.312,0,0,1-6.022,2.438c-2.832-.11-2.2-2.032-1.373-2.987,2.7-.439,2.779-2.414,2.438-4.3Z" transform="translate(-294.131 -126.568)" fill="#ffb573"/>
      <path id="Path_1333" data-name="Path 1333" d="M326.216,156s-1.17,1.93-5.876,3.1a5.779,5.779,0,0,1,1.158,2.438s6.14-1.479,5.953-4.933A4.129,4.129,0,0,0,326.216,156Z" transform="translate(-296.992 -137.847)" fill="#263238"/>
      <path id="Path_1334" data-name="Path 1334" d="M314.8,160.981a4.349,4.349,0,0,1,1.674-2,3.573,3.573,0,0,1-.788-3.174,3.828,3.828,0,0,0-1.089.069A4.178,4.178,0,0,0,314.8,160.981Z" transform="translate(-293.125 -137.728)" fill="#263238"/>
      <path id="Path_1335" data-name="Path 1335" d="M318.914,167.73c-.053.317-.24.553-.406.52s-.268-.313-.211-.63.244-.557.406-.524S318.979,167.409,318.914,167.73Z" transform="translate(-295.77 -144.432)" fill="#263238"/>
      <path id="Path_1336" data-name="Path 1336" d="M318.234,172.268c-.028.325-.191.573-.366.557s-.293-.289-.264-.61.191-.573.366-.557S318.262,171.947,318.234,172.268Z" transform="translate(-295.365 -147.143)" fill="#263238"/>
      <path id="Path_1337" data-name="Path 1337" d="M326.164,140.59l-2.844,2.093a7.078,7.078,0,0,1,.13,1.329,3.288,3.288,0,0,0,2.69-2.133A3.731,3.731,0,0,0,326.164,140.59Z" transform="translate(-298.761 -128.699)" opacity="0.2"/>
      <path id="Path_1338" data-name="Path 1338" d="M315.666,115.209c-2.536-.057-3.048,6.071-1.4,7.14S320.412,115.311,315.666,115.209Z" transform="translate(-292.822 -113.632)" fill="#263238"/>
      <path id="Path_1339" data-name="Path 1339" d="M322.724,120.872c-.435,3.206-.528,5.108-2.28,6.64a4.3,4.3,0,0,1-7.03-2.739c-.475-2.946.317-7.7,3.568-8.745a4.413,4.413,0,0,1,5.742,4.844Z" transform="translate(-292.806 -113.987)" fill="#ffb573"/>
      <path id="Path_1340" data-name="Path 1340" d="M332.694,124.939c-1.625.857-3.5-8.017.813-7.554C338.927,117.961,335.957,123.228,332.694,124.939Z" transform="translate(-303.234 -114.913)" fill="#263238"/>
      <path id="Path_1341" data-name="Path 1341" d="M317.57,113.779c0,1.987,6.449,3.962,8.659,3.283s2.767-2.438,1.581-3.657C325.8,111.3,317.57,109.886,317.57,113.779Z" transform="translate(-295.348 -111.328)" fill="#263238"/>
      <path id="Path_1342" data-name="Path 1342" d="M317.571,118a3.8,3.8,0,0,0,.931,1.755c-.577-.033-1.15-.849-1.333-1.325S317.571,118,317.571,118Z" transform="translate(-295.088 -115.287)" fill="#263238"/>
      <path id="Path_1343" data-name="Path 1343" d="M334.734,133.987a3.068,3.068,0,0,1-2.011,1.219c-1.069.154-1.463-.837-1.048-1.772.374-.841,1.378-1.934,2.393-1.658A1.37,1.37,0,0,1,334.734,133.987Z" transform="translate(-303.625 -123.441)" fill="#ffb573"/>
      <path id="Path_1344" data-name="Path 1344" d="M293.235,295.956l5.522.085s-1.845-21.817-1.345-31.968A106.844,106.844,0,0,1,299,252.037c1.032-5.835,1.528-8.16,2.845-15.531.951-5.258,1.8-8.863,1.8-8.863L292.2,226.79s-4.836,26.283-4.722,36.251C287.591,273.375,293.235,295.956,293.235,295.956Z" transform="translate(-277.482 -179.871)" fill="#263238"/>
      <path id="Path_1345" data-name="Path 1345" d="M314.829,246c-2.056,5.12-2.1,17.116-1.15,20.493.163-1,.337-2.032.52-3.064,1.032-5.835,1.528-8.16,2.845-15.531.024-.146.053-.289.077-.431A7.924,7.924,0,0,0,314.829,246Z" transform="translate(-292.684 -191.275)" opacity="0.2"/>
      <path id="Path_1346" data-name="Path 1346" d="M314.33,227.89s1.008,27.506,1.776,37.031c.837,10.435,8.655,31.761,8.655,31.761h5.973s-3.986-19.505-5.21-29.664c-1.394-11.541.024-38.3.024-38.3Z" transform="translate(-293.424 -180.524)" fill="#263238"/>
      <path id="Path_1347" data-name="Path 1347" d="M337.039,394.229h7.034v-2.1l-7.863-.138Z" transform="translate(-306.413 -277.941)" fill="#8fba4e"/>
      <path id="Path_1348" data-name="Path 1348" d="M298.854,393.971l6.579.1.032-2.125-7.355-.228Z" transform="translate(-283.796 -277.781)" fill="#8fba4e"/>
      <path id="Path_1349" data-name="Path 1349" d="M323.409,128.865c-.02.264-.175.467-.345.451s-.3-.236-.276-.5.175-.463.345-.451S323.429,128.625,323.409,128.865Z" transform="translate(-298.444 -121.444)" fill="#263238"/>
      <path id="Path_1350" data-name="Path 1350" d="M316.09,128.319c0,.264-.175.463-.345.451s-.293-.236-.276-.5.175-.467.349-.455S316.118,128.055,316.09,128.319Z" transform="translate(-294.099 -121.117)" fill="#263238"/>
      <path id="Path_1351" data-name="Path 1351" d="M317.242,129.54a9.472,9.472,0,0,1-1.422,2.154,1.512,1.512,0,0,0,1.219.325Z" transform="translate(-294.309 -122.139)" fill="#ed893e"/>
      <path id="Path_1352" data-name="Path 1352" d="M320.872,136.286a2.146,2.146,0,0,0,1.544-.748.077.077,0,0,0,0-.11.081.081,0,0,0-.11,0,2.081,2.081,0,0,1-1.755.687.077.077,0,0,0-.012.154,2.436,2.436,0,0,0,.333.016Z" transform="translate(-297.069 -125.623)" fill="#263238"/>
      <path id="Path_1353" data-name="Path 1353" d="M324.916,125.987a.13.13,0,0,0,.073-.024.15.15,0,0,0,.045-.211,1.532,1.532,0,0,0-1.219-.731.154.154,0,1,0,0,.309h0a1.219,1.219,0,0,1,.947.589A.154.154,0,0,0,324.916,125.987Z" transform="translate(-298.963 -119.456)" fill="#263238"/>
      <path id="Path_1354" data-name="Path 1354" d="M313.822,124.82a.162.162,0,0,0,.126-.077,1.219,1.219,0,0,1,.922-.634.155.155,0,0,0-.016-.309,1.552,1.552,0,0,0-1.174.784.154.154,0,0,0,.057.211A.171.171,0,0,0,313.822,124.82Z" transform="translate(-293.026 -118.731)" fill="#263238"/>
      <path id="Path_1355" data-name="Path 1355" d="M341.925,407.309a3.929,3.929,0,0,0,.853-.118.081.081,0,0,0,.061-.065.085.085,0,0,0-.037-.077c-.118-.073-1.17-.719-1.532-.536a.252.252,0,0,0-.134.219.476.476,0,0,0,.163.406A.991.991,0,0,0,341.925,407.309Zm.63-.228a1.576,1.576,0,0,1-1.158-.061.309.309,0,0,1-.106-.276.1.1,0,0,1,.049-.093c.187-.1.788.183,1.215.447Z" transform="translate(-309.337 -286.543)" fill="#8fba4e"/>
      <path id="Path_1356" data-name="Path 1356" d="M343.732,406.092a.077.077,0,0,0,.041,0,.081.081,0,0,0,.037-.069c0-.041-.081-.983-.459-1.292a.406.406,0,0,0-.329-.1h0a.248.248,0,0,0-.248.2c-.069.366.585,1.081.922,1.264Zm-.658-1.313a.252.252,0,0,1,.175.069,1.825,1.825,0,0,1,.386,1.02c-.333-.256-.752-.813-.711-1.008,0-.02,0-.069.114-.081Z" transform="translate(-310.306 -285.444)" fill="#8fba4e"/>
      <path id="Path_1357" data-name="Path 1357" d="M301.907,406.986a.081.081,0,0,0,.053-.065.077.077,0,0,0-.041-.077c-.146-.081-1.447-.764-1.845-.553a.252.252,0,0,0-.13.207h0a.431.431,0,0,0,.138.378c.349.321,1.288.207,1.816.11Zm-1.731-.569a3.2,3.2,0,0,1,1.467.455,2.107,2.107,0,0,1-1.459-.11.293.293,0,0,1-.089-.252.089.089,0,0,1,.053-.081Z" transform="translate(-284.882 -286.407)" fill="#8fba4e"/>
      <path id="Path_1358" data-name="Path 1358" d="M303.118,405.909h.02a.069.069,0,0,0,.032-.069,2.177,2.177,0,0,0-.488-1.264.548.548,0,0,0-.406-.138h0c-.215,0-.276.122-.293.211-.065.366.7,1.085,1.093,1.268A.093.093,0,0,0,303.118,405.909Zm-.926-1.317h.081a.406.406,0,0,1,.313.106,1.808,1.808,0,0,1,.406,1.012c-.406-.248-.918-.813-.882-1.032C302.122,404.665,302.127,404.613,302.192,404.592ZM302.265,404.5Z" transform="translate(-286.093 -285.33)" fill="#8fba4e"/>
      <path id="Path_1359" data-name="Path 1359" d="M345.2,165.54c1.138,2.284,2.158,4.567,3.1,6.908.475,1.17.914,2.361,1.345,3.56.211.605.406,1.219.61,1.82l.146.459.158.528c.114.362.179.723.264,1.081a19.945,19.945,0,0,1-.374,8.221,31.121,31.121,0,0,1-1.142,3.755c-.232.61-.479,1.219-.744,1.8s-.532,1.166-.861,1.776l-2.247-.975c.313-1.109.63-2.308.853-3.474s.431-2.345.561-3.507a23.973,23.973,0,0,0,.138-3.438,13.506,13.506,0,0,0-.447-3.182c-.077-.24-.138-.492-.232-.719-.049-.118-.077-.215-.138-.358l-.171-.406c-.228-.557-.475-1.113-.711-1.67-.475-1.122-.992-2.231-1.487-3.348l-3.068-6.676Z" transform="translate(-309.109 -143.51)" fill="#ffb573"/>
      <path id="Path_1360" data-name="Path 1360" d="M342.469,160.122c2.975.935,5.9,11.024,5.9,11.024l-6.884,3.011s-2.227-4.876-3.511-8.7C336.581,161.3,338.861,158.992,342.469,160.122Z" transform="translate(-307.215 -140.124)" fill="#8fba4e"/>
      <path id="Path_1361" data-name="Path 1361" d="M342.469,160.122c2.975.935,5.9,11.024,5.9,11.024l-6.884,3.011s-2.227-4.876-3.511-8.7C336.581,161.3,338.861,158.992,342.469,160.122Z" transform="translate(-307.215 -140.124)" opacity="0.2"/>
      <path id="Path_1362" data-name="Path 1362" d="M350.425,235.39l-1.605,2.9,3.783.983s1.142-2.808-.207-3.7Z" transform="translate(-313.899 -184.977)" fill="#ffb573"/>
      <path id="Path_1363" data-name="Path 1363" d="M348.13,245.807l3.474.289.589-2.593-3.783-.983Z" transform="translate(-313.49 -189.209)" fill="#ffb573"/>
    </g>
    <g id="freepik--Shield--inject-67" transform="translate(33.252 62.961)">
      <path id="Path_1364" data-name="Path 1364" d="M171.147,163.673H85.17L91.233,77.7H177.21Z" transform="translate(-83.813 -76.436)" fill="#8fba4e" opacity="0.19"/>
      <path id="Path_1365" data-name="Path 1365" d="M114.775,163.673H102.41L133.216,77.7h12.365Z" transform="translate(-94.047 -76.436)" fill="#fff" opacity="0.2"/>
      <path id="Path_1366" data-name="Path 1366" d="M166.9,163.673H139.63L170.436,77.7h27.275Z" transform="translate(-116.143 -76.436)" fill="#fff" opacity="0.2"/>
      <path id="Path_1367" data-name="Path 1367" d="M96.969,90.535l-2.519-.179L95.563,74.59h15.771v2.528H97.916Z" transform="translate(-89.322 -74.59)" fill="#8fba4e"/>
      <path id="Path_1368" data-name="Path 1368" d="M97.779,269.091H81.83l1.126-15.941,2.519.179-.935,13.235H97.779Z" transform="translate(-81.83 -180.591)" fill="#8fba4e"/>
      <path id="Path_1369" data-name="Path 1369" d="M290.574,90.535l-2.515-.179.931-13.239H275.75V74.59H291.7Z" transform="translate(-196.949 -74.59)" fill="#8fba4e"/>
      <path id="Path_1370" data-name="Path 1370" d="M276.6,269.091H260.83v-2.528h13.418l.947-13.414,2.519.179Z" transform="translate(-188.092 -180.591)" fill="#8fba4e"/>
      <g id="Group_71" data-name="Group 71" transform="translate(22.313 16.282)" opacity="0.3">
        <path id="Path_1371" data-name="Path 1371" d="M160.11,172.934a.508.508,0,0,1-.215-.053c-.024,0-.622-.341-1.625-.959-.406-.256-.918-.569-1.475-.922-1.768-1.15-3.47-2.361-5.067-3.6-.406-.3-.772-.61-1.166-.926-1.471-1.219-2.844-2.414-4.039-3.6-.309-.309-.614-.618-.918-.935a40.974,40.974,0,0,1-3.121-3.613c-.236-.3-.463-.618-.687-.935a27.954,27.954,0,0,1-2.207-3.629c-.154-.3-.309-.626-.451-.947a19.656,19.656,0,0,1-1.243-3.657c-.073-.289-.138-.6-.2-.951-.045-.228-.081-.467-.11-.7-.126-.931-.232-1.877-.333-2.9-.033-.3-.061-.614-.089-.918-.106-1.219-.2-2.41-.26-3.6v-.1c0-.268-.033-.536-.045-.813-.057-1.17-.1-2.377-.122-3.588v-4.511c0-.309,0-.618.02-.922.028-1.325.073-2.532.126-3.588V126.5c0-.293.024-.577.041-.857.073-1.308.158-2.548.248-3.588.028-.354.053-.654.081-.922.093-1.024.163-1.6.163-1.6a.443.443,0,0,1,.406-.406c.073,0,7.57-.581,15.555-1.987,1.625-.284,3.194-.593,4.681-.914,2.19-.479,4.194-1,5.961-1.548a.447.447,0,0,1,.272,0c1.686.553,3.617,1.073,5.738,1.548,1.443.325,2.97.63,4.551.914,7.786,1.406,15.2,1.983,15.275,1.987a.443.443,0,0,1,.406.455s0,.569-.061,1.6c0,.272-.028.581-.049.922-.061,1.044-.15,2.284-.26,3.588-.024.26-.049.52-.073.792v.134c-.093,1.061-.224,2.267-.378,3.584-.037.313-.073.618-.114.926-.138,1.105-.3,2.312-.5,3.584l-.138.918c-.2,1.219-.406,2.438-.626,3.592-.049.26-.1.524-.154.788l-.028.138c-.232,1.178-.488,2.389-.764,3.588l-.219.926c-.248,1.024-.488,1.971-.74,2.9-.069.24-.138.475-.211.711-.11.345-.215.654-.329.947a23.043,23.043,0,0,1-1.755,3.657c-.183.313-.378.63-.581.939a34.235,34.235,0,0,1-2.71,3.621c-.268.313-.536.626-.813.931a50.517,50.517,0,0,1-3.617,3.608q-.524.471-1.048.926c-1.378,1.187-2.9,2.393-4.539,3.6-.439.317-.87.626-1.3.926-1.772,1.239-3.657,2.438-5.567,3.6-.61.354-1.15.666-1.625.922-1.089.614-1.731.943-1.755.955A.451.451,0,0,1,160.11,172.934ZM138.26,120c-.028.268-.069.675-.118,1.219-.028.268-.053.565-.077.89-.089,1.057-.175,2.288-.248,3.592,0,.276-.028.557-.045.849v.069c-.057,1.048-.1,2.247-.126,3.564,0,.3,0,.605-.02.914v4.486c.024,1.2.065,2.4.122,3.556,0,.268.024.532.041.813v.122c.065,1.174.15,2.373.256,3.56.028.3.057.61.089.914.1,1.012.207,1.955.329,2.873.028.223.061.447.1.666.057.333.118.622.187.9a18.89,18.89,0,0,0,1.191,3.495c.138.3.28.61.431.9a27.32,27.32,0,0,0,2.137,3.519c.219.3.439.61.67.906a41.191,41.191,0,0,0,3.052,3.539c.3.309.6.614.906.914,1.187,1.166,2.523,2.357,3.974,3.543.406.313.772.618,1.154.918,1.573,1.219,3.251,2.418,5,3.552.549.349,1.04.658,1.459.91.646.406,1.126.675,1.382.813.272-.142.813-.406,1.512-.813.459-.256.992-.565,1.593-.918,1.9-1.134,3.755-2.328,5.506-3.556.406-.3.849-.6,1.284-.918,1.625-1.187,3.125-2.377,4.47-3.547.345-.3.691-.605,1.032-.918a49.7,49.7,0,0,0,3.56-3.543c.272-.3.536-.6.813-.906a32.917,32.917,0,0,0,2.641-3.527,9.964,9.964,0,0,0,.561-.906,22.227,22.227,0,0,0,1.719-3.511c.11-.28.211-.573.313-.9.073-.223.138-.451.2-.675.252-.918.492-1.857.736-2.873.077-.3.146-.61.219-.914.272-1.191.528-2.389.756-3.56l.028-.142c.053-.26.1-.52.15-.78.219-1.154.431-2.353.622-3.564l.142-.914c.191-1.264.358-2.463.5-3.564.041-.3.073-.605.11-.906.154-1.317.284-2.515.378-3.572v-.134c.024-.268.049-.532.069-.788h0c.11-1.292.2-2.523.256-3.56.02-.341.037-.646.053-.918.02-.5.037-.886.045-1.15-1.69-.146-8.176-.744-14.938-1.963-1.593-.289-3.133-.6-4.588-.922-2.093-.471-4-.983-5.689-1.528-1.76.545-3.743,1.057-5.9,1.528-1.5.325-3.08.634-4.714.922C146.517,119.267,139.873,119.864,138.26,120Z" transform="translate(-136.74 -114.658)" fill="#8fba4e"/>
        <ellipse id="Ellipse_15" data-name="Ellipse 15" cx="5.522" cy="5.149" rx="5.522" ry="5.149" transform="matrix(0.719, -0.695, 0.695, 0.719, 18.521, 19.659)" fill="#8fba4e"/>
        <path id="Path_1372" data-name="Path 1372" d="M194.6,167.29h-2.6l-3.682,17.173h7.546Z" transform="translate(-167.354 -145.903)" fill="#8fba4e"/>
        <g id="Group_70" data-name="Group 70" transform="translate(0.439 2.012)" opacity="0.2">
          <path id="Path_1373" data-name="Path 1373" d="M198.925,120.532H177.88c1.56-.276,3.141-.581,4.7-.922h11.784C195.869,119.951,197.405,120.256,198.925,120.532Z" transform="translate(-161.601 -119.61)" fill="#8fba4e"/>
          <path id="Path_1374" data-name="Path 1374" d="M190.995,131.592H138.9c.024-.341.049-.646.077-.922h52.066C191.031,130.946,191.015,131.251,190.995,131.592Z" transform="translate(-138.461 -126.176)" fill="#8fba4e"/>
          <path id="Path_1375" data-name="Path 1375" d="M190.307,141.73c-.024.3-.053.61-.081.926H138.18c0-.317.028-.626.045-.926Z" transform="translate(-138.034 -132.741)" fill="#8fba4e"/>
          <path id="Path_1376" data-name="Path 1376" d="M189.634,152.8c-.037.3-.073.614-.114.922h-51.7c0-.309,0-.618.02-.922Z" transform="translate(-137.82 -139.313)" fill="#8fba4e"/>
          <path id="Path_1377" data-name="Path 1377" d="M189.031,163.87c-.049.3-.093.61-.142.918H137.83v-.918Z" transform="translate(-137.826 -145.885)" fill="#8fba4e"/>
          <path id="Path_1378" data-name="Path 1378" d="M188.465,174.93l-.183.922h-50.1c0-.309-.037-.618-.049-.922Z" transform="translate(-138.004 -152.45)" fill="#8fba4e"/>
          <path id="Path_1379" data-name="Path 1379" d="M187.942,186l-.219.918H138.959c-.033-.3-.061-.614-.089-.918Z" transform="translate(-138.443 -159.022)" fill="#8fba4e"/>
          <path id="Path_1380" data-name="Path 1380" d="M187.557,197.06c-.1.309-.2.618-.321.922H140.371c-.077-.3-.138-.614-.191-.922Z" transform="translate(-139.221 -165.588)" fill="#8fba4e"/>
          <path id="Path_1381" data-name="Path 1381" d="M187.573,208.12c-.179.309-.374.622-.569.922H144.089c-.154-.3-.3-.614-.439-.922Z" transform="translate(-141.281 -172.153)" fill="#8fba4e"/>
          <path id="Path_1382" data-name="Path 1382" d="M188.143,219.19c-.264.309-.528.618-.813.918H150.759c-.236-.3-.459-.61-.679-.918Z" transform="translate(-145.098 -178.725)" fill="#8fba4e"/>
          <path id="Path_1383" data-name="Path 1383" d="M189.244,230.25c-.345.313-.691.622-1.04.922H160.25c-.3-.3-.61-.61-.91-.922Z" transform="translate(-150.595 -185.291)" fill="#8fba4e"/>
          <path id="Path_1384" data-name="Path 1384" d="M190.876,241.31c-.439.317-.866.626-1.292.922H172.6c-.382-.3-.768-.605-1.162-.922Z" transform="translate(-157.778 -191.856)" fill="#8fba4e"/>
          <path id="Path_1385" data-name="Path 1385" d="M193.1,252.38c-.605.354-1.142.662-1.6.918h-3.344c-.406-.256-.918-.565-1.471-.918Z" transform="translate(-166.825 -198.428)" fill="#8fba4e"/>
        </g>
      </g>
    </g>
  </g>
</svg>
