<svg
    xmlns="http://www.w3.org/2000/svg"
    viewBox="0 0 22 22"
    id="vector">
    <defs>
        <clipPath id="clip_group_1">
            <path d="M 0 0 L 22 0 L 22 22 L 0 22 Z"/>
        </clipPath>
    </defs>
    <g id="wrapper_1">
        <g
            id="group_1"
            clip-path="url(#clip_group_1)">
            <path
                id="path_1"
                d="M 15.673 11 L 11 11 L 11 15.673 L 15.673 15.673 Z M 14.739 0.719 L 14.739 2.588 L 7.261 2.588 L 7.261 0.719 L 5.388 0.719 L 5.388 2.588 L 4.457 2.588 C 4.13 2.588 3.808 2.675 3.525 2.839 C 3.241 3.003 3.006 3.239 2.843 3.523 C 2.681 3.807 2.596 4.13 2.597 4.457 L 2.588 17.543 C 2.588 18.038 2.785 18.514 3.135 18.865 C 3.486 19.215 3.962 19.412 4.457 19.412 L 17.543 19.412 C 18.038 19.412 18.514 19.215 18.865 18.865 C 19.215 18.514 19.412 18.038 19.412 17.543 L 19.412 4.458 C 19.412 3.963 19.215 3.487 18.865 3.136 C 18.514 2.786 18.038 2.589 17.543 2.589 L 16.608 2.589 L 16.608 0.719 Z M 17.539 17.543 L 4.457 17.543 L 4.457 7.262 L 17.543 7.262 Z"
                fill="#ffffff"
                stroke-width="1"/>
        </g>
    </g>
</svg>
