<svg xmlns="http://www.w3.org/2000/svg" xmlns:xlink="http://www.w3.org/1999/xlink" width="24" height="24" viewBox="0 0 24 24">
  <defs>
    <clipPath id="clip-path">
      <rect id="Rectangle_1704" data-name="Rectangle 1704" width="24" height="24" transform="translate(326 305)" fill="#fff"/>
    </clipPath>
  </defs>
  <g id="call" transform="translate(-326 -305)" clip-path="url(#clip-path)">
    <path id="call-2" data-name="call" d="M23.567,20.793c-.741,2.251-3.643,3.374-5.717,3.187A18.232,18.232,0,0,1,9.6,20.567,27.181,27.181,0,0,1,1.062,10.382c-1.326-2.821-1.624-6.289.349-8.86A3.393,3.393,0,0,1,4.115,0C5.76-.075,5.99.866,6.555,2.331c.421,1.1.982,2.214,1.3,3.35C8.438,7.8,6.385,7.889,6.126,9.622c-.16,1.093,1.163,2.558,1.762,3.337A16.167,16.167,0,0,0,12.06,16.8c.912.574,2.381,1.61,3.424,1.038,1.606-.88,1.456-3.589,3.7-2.672a36.142,36.142,0,0,1,3.4,1.755c1.717.923,1.637,1.88.982,3.867h0" transform="translate(326.001 305)" fill="#fff" fill-rule="evenodd"/>
  </g>
</svg>
