<svg
    xmlns="http://www.w3.org/2000/svg"
    viewBox="0 0 15 15"
    id="vector">
    <defs>
        <clipPath id="clip_group_6">
            <path d="M 0 0 L 15 0 L 15 15 L 0 15 Z"/>
        </clipPath>
    </defs>
    <g id="wrapper">
        <g
            id="group_6"
            clip-path="url(#clip_group_6)">
            <g id="group_5">
                <g id="group_4">
                    <path
                        id="path"
                        d="M 14.999 7.637 L 14.999 9.424 C 15.003 9.467 14.993 9.511 14.969 9.547 C 14.918 9.818 14.782 10.065 14.582 10.254 C 14.381 10.443 14.125 10.563 13.852 10.597 C 13.545 10.617 13.236 10.617 12.929 10.597 C 12.862 10.589 12.795 10.606 12.74 10.644 C 12.684 10.682 12.645 10.74 12.629 10.805 C 12.309 11.637 11.824 12.395 11.203 13.035 C 10.583 13.674 9.84 14.182 9.018 14.527 C 8.309 14.848 7.514 14.929 6.755 14.758 C 5.641 14.482 4.633 13.885 3.855 13.042 C 3.2 12.376 2.693 11.579 2.366 10.704 C 2.357 10.667 2.334 10.635 2.303 10.613 C 2.271 10.592 2.233 10.583 2.195 10.589 L 1.399 10.589 C 1.058 10.61 0.722 10.496 0.464 10.272 C 0.207 10.047 0.048 9.73 0.022 9.389 C -0.012 8.82 -0.012 8.249 0.022 7.68 C 0.033 7.488 0.09 7.302 0.188 7.138 C 0.287 6.973 0.424 6.835 0.588 6.735 C 0.63 6.711 0.665 6.674 0.687 6.631 C 0.708 6.587 0.717 6.538 0.711 6.489 C 0.716 5.777 0.814 5.068 1.005 4.382 C 1.216 3.56 1.619 2.8 2.181 2.165 C 2.744 1.53 3.449 1.038 4.239 0.729 C 4.941 0.445 5.684 0.273 6.439 0.219 C 7.736 0.069 9.049 0.186 10.299 0.563 C 11.139 0.808 11.907 1.255 12.534 1.865 C 13.162 2.475 13.63 3.23 13.899 4.063 C 14.158 4.847 14.291 5.668 14.294 6.494 C 14.294 6.543 14.305 6.591 14.328 6.635 C 14.351 6.678 14.384 6.715 14.424 6.743 C 14.579 6.874 14.716 7.025 14.83 7.193 C 14.902 7.335 14.959 7.483 14.999 7.637 Z M 3.852 11.602 L 3.889 11.676 C 4.467 12.503 5.249 13.167 6.159 13.604 C 6.525 13.8 6.931 13.913 7.346 13.933 C 7.761 13.954 8.175 13.882 8.559 13.723 C 9.267 13.435 9.911 13.01 10.453 12.471 C 10.994 11.932 11.424 11.291 11.716 10.585 C 12.091 9.664 12.247 8.669 12.174 7.678 C 12.177 7.537 12.14 7.399 12.068 7.278 C 11.996 7.158 11.891 7.06 11.765 6.997 C 11.205 6.668 10.594 6.438 9.956 6.316 C 9.695 6.264 9.431 6.227 9.13 6.175 C 9.317 6.401 9.452 6.665 9.525 6.949 C 9.379 6.867 9.229 6.794 9.075 6.729 C 8.703 6.595 8.331 6.465 7.958 6.357 C 6.951 6.079 6.079 5.446 5.504 4.574 C 5.478 4.533 5.444 4.496 5.392 4.429 C 5.392 4.537 5.366 4.611 5.362 4.682 C 5.344 5.107 5.24 5.523 5.057 5.907 C 4.873 6.351 4.584 6.743 4.216 7.051 C 3.847 7.359 3.409 7.573 2.94 7.675 C 2.851 7.675 2.828 7.735 2.825 7.82 C 2.784 8.464 2.84 9.11 2.993 9.737 C 3.021 9.971 3.118 10.191 3.272 10.37 C 3.551 10.637 3.875 10.851 4.229 11.003 C 4.762 11.22 5.326 11.353 5.9 11.398 C 5.978 11.413 6.059 11.407 6.134 11.381 C 6.209 11.355 6.276 11.309 6.328 11.249 C 6.619 11.001 6.989 10.864 7.372 10.864 C 7.755 10.864 8.125 11.001 8.416 11.249 C 8.55 11.372 8.632 11.543 8.642 11.725 C 8.653 11.907 8.591 12.086 8.472 12.224 C 8.284 12.45 8.019 12.6 7.728 12.645 C 7.492 12.712 7.242 12.718 7.003 12.662 C 6.764 12.606 6.544 12.49 6.362 12.325 C 6.281 12.24 6.182 12.172 6.073 12.127 C 5.964 12.082 5.847 12.061 5.729 12.064 L 5.638 12.064 C 5.022 12.004 4.419 11.848 3.851 11.602 Z M 13.499 6.491 C 13.499 6.372 13.48 6.264 13.477 6.16 C 13.446 5.331 13.254 4.516 12.911 3.76 C 12.433 2.718 11.567 1.901 10.499 1.484 C 9.853 1.224 9.172 1.063 8.478 1.008 C 7.136 0.848 5.776 1.011 4.51 1.484 C 3.812 1.754 3.193 2.196 2.71 2.768 C 2.085 3.556 1.697 4.505 1.592 5.505 C 1.551 5.829 1.529 6.153 1.499 6.48 L 2.02 6.48 C 2.118 5.807 2.307 5.151 2.582 4.53 C 2.855 3.887 3.271 3.315 3.798 2.856 C 4.324 2.398 4.949 2.065 5.623 1.883 C 6.547 1.63 7.514 1.567 8.463 1.697 C 9.213 1.773 9.937 2.012 10.585 2.397 C 11.633 3.056 12.393 4.089 12.71 5.286 C 12.833 5.658 12.91 6.075 13.01 6.481 Z"
                        fill="#000000"
                        stroke-width="1"/>
                    <path
                        id="path_4"
                        d="M 5.56 9.022 C 5.385 9.022 5.216 8.962 5.079 8.852 C 4.943 8.743 4.848 8.59 4.811 8.419 C 4.774 8.248 4.796 8.07 4.874 7.913 C 4.952 7.757 5.081 7.631 5.24 7.558 C 5.398 7.485 5.578 7.469 5.747 7.511 C 5.917 7.554 6.067 7.653 6.172 7.792 C 6.278 7.932 6.332 8.103 6.327 8.278 C 6.321 8.477 6.238 8.667 6.094 8.806 C 5.951 8.944 5.759 9.022 5.56 9.022 Z"
                        fill="#000000"
                        stroke-width="1"/>
                    <path
                        id="path_5"
                        d="M 9.435 9.022 C 9.261 9.018 9.094 8.955 8.96 8.843 C 8.827 8.731 8.736 8.577 8.701 8.407 C 8.667 8.236 8.692 8.059 8.771 7.904 C 8.851 7.75 8.981 7.627 9.139 7.555 C 9.298 7.484 9.476 7.469 9.645 7.513 C 9.813 7.556 9.962 7.655 10.067 7.795 C 10.171 7.934 10.225 8.104 10.22 8.278 C 10.214 8.48 10.128 8.673 9.981 8.812 C 9.834 8.951 9.638 9.027 9.435 9.022 Z"
                        fill="#000000"
                        stroke-width="1"/>
                </g>
            </g>
        </g>
    </g>
</svg>
