<svg xmlns="http://www.w3.org/2000/svg" xmlns:xlink="http://www.w3.org/1999/xlink" width="15" height="15" viewBox="0 0 15 15">
  <defs>
    <clipPath id="clip-path">
      <rect id="Rectangle_1705" data-name="Rectangle 1705" width="15" height="15" transform="translate(238.122 118)" fill="#fff"/>
    </clipPath>
  </defs>
  <g id="camera" transform="translate(-238.122 -118)" clip-path="url(#clip-path)">
    <path id="camera-2" data-name="camera" d="M7.561,6.137A2.268,2.268,0,1,0,9.83,8.405,2.268,2.268,0,0,0,7.561,6.137ZM13.61,3.868H11.8a.671.671,0,0,1-.6-.431l-.47-1.407a.673.673,0,0,0-.6-.43H4.99a.672.672,0,0,0-.6.429l-.47,1.408a.672.672,0,0,1-.6.431H1.512A1.517,1.517,0,0,0,0,5.381v6.805A1.517,1.517,0,0,0,1.512,13.7h12.1a1.517,1.517,0,0,0,1.512-1.512V5.381A1.517,1.517,0,0,0,13.61,3.868ZM7.561,12.186a3.781,3.781,0,1,1,3.781-3.781A3.781,3.781,0,0,1,7.561,12.186Zm5.671-5.9a.529.529,0,1,1,.529-.529A.529.529,0,0,1,13.232,6.288Z" transform="translate(238 117.912)" fill="#fff"/>
  </g>
</svg>
