<svg xmlns="http://www.w3.org/2000/svg" width="12.982" height="16.691" viewBox="0 0 12.982 16.691">
  <g id="delete" transform="translate(-5 -3)">
    <path id="Path_2039" data-name="Path 2039" d="M14.273,3a.927.927,0,0,1,.927.927h1.855a.927.927,0,1,1,0,1.855H5.927a.927.927,0,0,1,0-1.855H7.782A.927.927,0,0,1,8.709,3Z" transform="translate(0 0)" fill="#ef1212"/>
    <path id="Path_2040" data-name="Path 2040" d="M6,7H17.127V18.127a1.855,1.855,0,0,1-1.855,1.855H7.855A1.855,1.855,0,0,1,6,18.127ZM9.245,8.855a.464.464,0,0,0-.464.464v8.345a.464.464,0,0,0,.927,0V9.318A.464.464,0,0,0,9.245,8.855Zm4.636,0a.464.464,0,0,0-.464.464v8.345a.464.464,0,0,0,.927,0V9.318A.464.464,0,0,0,13.882,8.855Z" transform="translate(-0.073 -0.291)" fill="#ef1212" fill-rule="evenodd"/>
  </g>
</svg>
