<svg xmlns="http://www.w3.org/2000/svg" xmlns:xlink="http://www.w3.org/1999/xlink" width="22" height="22" viewBox="0 0 22 22">
  <defs>
    <clipPath id="clip-path">
      <rect id="Rectangle_1700" data-name="Rectangle 1700" width="22" height="22" transform="translate(0.16 0.145)" fill="#fff"/>
    </clipPath>
  </defs>
  <g id="language" transform="translate(-0.16 -0.145)" clip-path="url(#clip-path)">
    <g id="language-2" data-name="language">
      <path id="Path_2132" data-name="Path 2132" d="M0,0H22.16V22.16H0Z" fill="none"/>
      <path id="Path_2133" data-name="Path 2133" d="M10.891,1.667A9.233,9.233,0,1,0,20.133,10.9,9.229,9.229,0,0,0,10.891,1.667Zm6.4,5.54H14.566A14.449,14.449,0,0,0,13.291,3.92,7.414,7.414,0,0,1,17.289,7.207ZM10.9,3.55a13.007,13.007,0,0,1,1.764,3.656H9.136A13.007,13.007,0,0,1,10.9,3.55Zm-7.147,9.2a7.223,7.223,0,0,1,0-3.693H6.874A15.249,15.249,0,0,0,6.745,10.9a15.249,15.249,0,0,0,.129,1.847Zm.757,1.847H7.234A14.449,14.449,0,0,0,8.509,17.88a7.374,7.374,0,0,1-4-3.287ZM7.234,7.207H4.511a7.374,7.374,0,0,1,4-3.287A14.449,14.449,0,0,0,7.234,7.207ZM10.9,18.25a13.007,13.007,0,0,1-1.764-3.656h3.527A13.007,13.007,0,0,1,10.9,18.25Zm2.161-5.5H8.739A13.585,13.585,0,0,1,8.592,10.9a13.467,13.467,0,0,1,.148-1.847h4.321a13.467,13.467,0,0,1,.148,1.847A13.585,13.585,0,0,1,13.061,12.747Zm.231,5.134a14.449,14.449,0,0,0,1.274-3.287h2.724A7.414,7.414,0,0,1,13.291,17.88Zm1.634-5.134a15.249,15.249,0,0,0,.129-1.847,15.249,15.249,0,0,0-.129-1.847h3.121a7.222,7.222,0,0,1,0,3.693Z" transform="translate(0.18 0.18)" fill="#fff"/>
    </g>
  </g>
</svg>
