<svg xmlns="http://www.w3.org/2000/svg" xmlns:xlink="http://www.w3.org/1999/xlink" width="19" height="19" viewBox="0 0 19 19">
  <defs>
    <clipPath id="clip-path">
      <rect id="Rectangle_1671" data-name="Rectangle 1671" width="19" height="19" transform="translate(352.495 44.495)" fill="#8fba4e"/>
    </clipPath>
  </defs>
  <g id="notifcation" transform="translate(-352.495 -44.495)" clip-path="url(#clip-path)">
    <path id="notification" d="M9.181,16.231a3.3,3.3,0,0,1,1.36.338h.025a.841.841,0,0,1,.136,1.165,2.928,2.928,0,0,1-2.2,1.241,3.5,3.5,0,0,1-2.55-.7,1.544,1.544,0,0,1-.663-1.106c0-.473.442-.692.85-.785a7.088,7.088,0,0,1,1.453-.152H9.181ZM8.11,0c2.941,0,5.975,2.128,6.289,5.21.051.633,0,1.292.051,1.934a4.776,4.776,0,0,0,1.113,2.229,3.474,3.474,0,0,1,.586,1.748h0v.194a3.474,3.474,0,0,1-.85,2.3,4.26,4.26,0,0,1-2.677,1.326,35.827,35.827,0,0,1-9.119,0A4.26,4.26,0,0,1,.792,13.613a3.423,3.423,0,0,1-.79-2.3v-.194A3.556,3.556,0,0,1,.571,9.374,4.87,4.87,0,0,0,1.7,7.144c.051-.642,0-1.292.051-1.934C2.075,2.128,5.05,0,8.025,0H8.11Z" transform="translate(353.92 44.495)" fill="#8fba4e"/>
  </g>
</svg>
