<svg xmlns="http://www.w3.org/2000/svg" xmlns:xlink="http://www.w3.org/1999/xlink" width="22" height="22" viewBox="0 0 22 22">
  <defs>
    <clipPath id="clip-path">
      <rect id="Rectangle_1697" data-name="Rectangle 1697" width="22" height="22" fill="#fff"/>
    </clipPath>
  </defs>
  <g id="setting" clip-path="url(#clip-path)">
    <path id="setting-2" data-name="setting" d="M11.236,0a2.218,2.218,0,0,1,1.606.627,2.13,2.13,0,0,1,.66,1.562,2.215,2.215,0,0,0,2.245,2.19,2.34,2.34,0,0,0,1.111-.3,2.253,2.253,0,0,1,3,.814h0l.749,1.287a2.215,2.215,0,0,1,.3,1.089,2.168,2.168,0,0,1-1.121,1.892,2.2,2.2,0,0,0-.825.8,2.156,2.156,0,0,0,.825,2.937,2.176,2.176,0,0,1,.825,2.969h0l-.749,1.244a2.228,2.228,0,0,1-1.925,1.1,2.189,2.189,0,0,1-1.121-.3,2.413,2.413,0,0,0-1.123-.3,2.239,2.239,0,0,0-1.583.649,2.128,2.128,0,0,0-.661,1.551A2.211,2.211,0,0,1,11.2,22H9.7a2.215,2.215,0,0,1-1.563-.649,2.163,2.163,0,0,1-.637-1.54,2.205,2.205,0,0,0-2.233-2.189,2.179,2.179,0,0,0-1.145.32,2.364,2.364,0,0,1-1.7.219A2.3,2.3,0,0,1,1.05,17.138h0L.347,15.9a2.144,2.144,0,0,1-.275-1.716A2.227,2.227,0,0,1,1.16,12.8a2.135,2.135,0,0,0,.825-.8A2.177,2.177,0,0,0,1.16,9.064,2.141,2.141,0,0,1,.347,6.127h0L1.05,4.9A2.242,2.242,0,0,1,2.425,3.85a2.272,2.272,0,0,1,1.716.231,2.4,2.4,0,0,0,1.123.286,2.273,2.273,0,0,0,1.583-.638,2.157,2.157,0,0,0,.65-1.54A2.213,2.213,0,0,1,9.74,0h1.5Zm.441,8.229A3.138,3.138,0,0,0,8.3,8.877a2.965,2.965,0,0,0-.671,3.29,3.074,3.074,0,0,0,2.849,1.869h.012a3.023,3.023,0,0,0,2.177-.88,2.963,2.963,0,0,0,.913-2.134A3,3,0,0,0,11.677,8.229Z" transform="translate(0.548)" fill="#fff"/>
  </g>
</svg>
