<svg
    xmlns="http://www.w3.org/2000/svg"
    viewBox="0 0 22 22"
    id="vector">
    <defs>
        <clipPath id="clip_group">
            <path d="M 0 0 L 22 0 L 22 22 L 0 22 Z"/>
        </clipPath>
    </defs>
    <g id="wrapper">
        <g
            id="group"
            clip-path="url(#clip_group)">
            <path
                id="path"
                d="M 10.999 0.472 C 8.614 0.472 6.299 1.282 4.435 2.769 C 2.57 4.256 1.265 6.333 0.735 8.658 C 0.204 10.982 0.479 13.42 1.514 15.568 C 2.549 17.717 4.283 19.451 6.432 20.486 C 8.58 21.52 11.018 21.795 13.342 21.264 C 15.667 20.733 17.744 19.428 19.231 17.563 C 20.717 15.699 21.527 13.384 21.527 10.999 C 21.527 8.208 20.417 5.529 18.443 3.555 C 16.469 1.582 13.79 0.472 10.999 0.472 Z M 14.828 11.957 L 10.999 11.957 C 10.745 11.957 10.502 11.856 10.322 11.677 C 10.143 11.497 10.042 11.254 10.042 11 L 10.042 5.257 C 10.043 5.004 10.144 4.761 10.323 4.582 C 10.503 4.404 10.746 4.303 10.999 4.303 C 11.252 4.303 11.495 4.404 11.675 4.582 C 11.854 4.761 11.955 5.004 11.956 5.257 L 11.956 10.042 L 14.828 10.042 C 15.03 10.041 15.228 10.105 15.392 10.224 C 15.556 10.342 15.678 10.51 15.741 10.703 C 15.804 10.895 15.804 11.103 15.741 11.295 C 15.678 11.488 15.556 11.656 15.392 11.774 C 15.228 11.893 15.03 11.957 14.828 11.956 Z"
                fill="#ffffff"
                stroke-width="1"/>
        </g>
    </g>
</svg>
